<?xml version="1.0" encoding="UTF-8" standalone="no"?>
<!DOCTYPE svg PUBLIC "-//W3C//DTD SVG 1.1//EN" "http://www.w3.org/Graphics/SVG/1.1/DTD/svg11.dtd">
<svg width="100%" height="100%" viewBox="0 0 195 41" version="1.1" xmlns="http://www.w3.org/2000/svg" xmlns:xlink="http://www.w3.org/1999/xlink" xml:space="preserve" xmlns:serif="http://www.serif.com/" style="fill-rule:evenodd;clip-rule:evenodd;stroke-linejoin:round;stroke-miterlimit:2;">
    <g transform="matrix(0.684527,0,0,0.684527,-130.715,-60.6058)">
        <g transform="matrix(50,0,0,50,258.472,129.629)">
            <path d="M0.28,0.015C0.198,0.015 0.134,-0.005 0.089,-0.045C0.043,-0.084 0.02,-0.14 0.02,-0.211L0.02,-0.227L0.18,-0.227L0.18,-0.211C0.18,-0.186 0.189,-0.167 0.206,-0.154C0.223,-0.14 0.248,-0.133 0.279,-0.133C0.306,-0.133 0.328,-0.138 0.344,-0.148C0.359,-0.158 0.367,-0.172 0.367,-0.191C0.367,-0.203 0.362,-0.215 0.352,-0.227C0.341,-0.239 0.327,-0.25 0.308,-0.259L0.168,-0.33C0.125,-0.351 0.092,-0.378 0.069,-0.41C0.045,-0.442 0.033,-0.476 0.033,-0.512C0.033,-0.575 0.055,-0.625 0.099,-0.661C0.142,-0.696 0.203,-0.714 0.282,-0.715C0.361,-0.715 0.422,-0.695 0.466,-0.655C0.51,-0.615 0.532,-0.56 0.532,-0.489L0.532,-0.465L0.372,-0.465L0.372,-0.479C0.372,-0.506 0.364,-0.528 0.349,-0.543C0.334,-0.558 0.312,-0.566 0.285,-0.566C0.259,-0.566 0.239,-0.561 0.225,-0.552C0.21,-0.543 0.203,-0.529 0.203,-0.512C0.203,-0.502 0.208,-0.492 0.217,-0.482C0.226,-0.471 0.239,-0.462 0.256,-0.453L0.42,-0.373C0.457,-0.355 0.485,-0.33 0.506,-0.298C0.527,-0.266 0.537,-0.23 0.537,-0.191C0.537,-0.126 0.515,-0.076 0.469,-0.04C0.425,-0.003 0.361,0.015 0.28,0.015Z" style="fill:rgb(255,201,71);fill-rule:nonzero;"/>
        </g>
        <g transform="matrix(50,0,0,50,287.072,129.629)">
            <path d="M0.303,0.015C0.25,0.015 0.203,0.004 0.164,-0.018C0.124,-0.04 0.093,-0.071 0.072,-0.113C0.051,-0.154 0.04,-0.201 0.04,-0.256C0.04,-0.311 0.051,-0.358 0.071,-0.399C0.093,-0.439 0.123,-0.47 0.162,-0.492C0.201,-0.514 0.247,-0.525 0.3,-0.525C0.353,-0.525 0.399,-0.515 0.438,-0.496C0.477,-0.477 0.507,-0.449 0.529,-0.413C0.55,-0.377 0.56,-0.335 0.56,-0.286C0.56,-0.257 0.558,-0.232 0.553,-0.212L0.188,-0.212C0.194,-0.178 0.207,-0.152 0.228,-0.133C0.248,-0.114 0.273,-0.104 0.303,-0.104C0.334,-0.104 0.358,-0.109 0.377,-0.118C0.395,-0.128 0.404,-0.141 0.404,-0.158L0.404,-0.161L0.548,-0.161L0.548,-0.158C0.548,-0.105 0.526,-0.063 0.482,-0.032C0.438,-0.001 0.378,0.015 0.303,0.015ZM0.411,-0.304C0.404,-0.337 0.391,-0.362 0.372,-0.38C0.353,-0.398 0.329,-0.407 0.3,-0.407C0.271,-0.407 0.247,-0.398 0.228,-0.38C0.209,-0.362 0.196,-0.337 0.189,-0.304L0.411,-0.304Z" style="fill:rgb(255,201,71);fill-rule:nonzero;"/>
        </g>
        <g transform="matrix(50,0,0,50,317.022,129.629)">
            <path d="M0.369,-0.525C0.42,-0.525 0.457,-0.511 0.482,-0.483C0.506,-0.454 0.518,-0.41 0.518,-0.35L0.518,-0.253L0.357,-0.253L0.357,-0.3C0.357,-0.326 0.352,-0.346 0.341,-0.361C0.33,-0.375 0.314,-0.382 0.294,-0.382C0.274,-0.382 0.259,-0.374 0.248,-0.359C0.236,-0.344 0.231,-0.322 0.231,-0.295L0.231,-0L0.08,-0L0.08,-0.51L0.206,-0.51C0.202,-0.478 0.194,-0.442 0.182,-0.403L0.225,-0.403C0.242,-0.484 0.29,-0.525 0.369,-0.525Z" style="fill:rgb(255,201,71);fill-rule:nonzero;"/>
        </g>
        <g transform="matrix(50,0,0,50,343.422,129.629)">
            <path d="M0.183,-0L0.01,-0.51L0.168,-0.51L0.238,-0.305C0.246,-0.282 0.252,-0.252 0.257,-0.216C0.261,-0.18 0.263,-0.141 0.263,-0.099L0.305,-0.099C0.305,-0.141 0.307,-0.18 0.312,-0.216C0.316,-0.252 0.322,-0.282 0.33,-0.305L0.4,-0.51L0.558,-0.51L0.385,-0L0.183,-0Z" style="fill:rgb(255,201,71);fill-rule:nonzero;"/>
        </g>
        <g transform="matrix(50,0,0,50,370.322,129.629)">
            <path d="M0.233,0.015C0.177,0.015 0.133,0.002 0.102,-0.024C0.071,-0.049 0.055,-0.085 0.055,-0.13C0.055,-0.183 0.074,-0.224 0.113,-0.255C0.152,-0.285 0.206,-0.302 0.275,-0.305L0.383,-0.309L0.383,-0.315C0.383,-0.344 0.376,-0.366 0.361,-0.382C0.345,-0.398 0.324,-0.406 0.295,-0.406C0.27,-0.406 0.249,-0.399 0.233,-0.385C0.216,-0.371 0.208,-0.354 0.208,-0.335L0.055,-0.335C0.058,-0.395 0.08,-0.442 0.121,-0.474C0.162,-0.507 0.22,-0.524 0.295,-0.524C0.37,-0.524 0.428,-0.505 0.471,-0.468C0.514,-0.43 0.535,-0.376 0.535,-0.305L0.535,-0L0.432,-0L0.427,-0.087L0.384,-0.087C0.38,-0.055 0.364,-0.03 0.337,-0.012C0.31,0.006 0.275,0.015 0.233,0.015ZM0.272,-0.089C0.306,-0.089 0.333,-0.098 0.353,-0.117C0.373,-0.135 0.383,-0.158 0.383,-0.186L0.383,-0.212L0.284,-0.201C0.261,-0.198 0.243,-0.192 0.23,-0.181C0.216,-0.17 0.209,-0.158 0.209,-0.143C0.209,-0.127 0.215,-0.114 0.226,-0.104C0.237,-0.094 0.253,-0.089 0.272,-0.089Z" style="fill:rgb(255,201,71);fill-rule:nonzero;"/>
        </g>
        <g transform="matrix(50,0,0,50,400.472,129.629)">
            <path d="M0.387,-0.525C0.455,-0.525 0.508,-0.501 0.546,-0.454C0.584,-0.407 0.603,-0.341 0.603,-0.256C0.603,-0.171 0.584,-0.104 0.546,-0.057C0.508,-0.009 0.455,0.015 0.387,0.015C0.345,0.015 0.311,0.005 0.284,-0.015C0.257,-0.035 0.237,-0.066 0.224,-0.107L0.18,-0.107C0.199,-0.06 0.209,-0.024 0.209,-0L0.078,-0L0.078,-0.756L0.228,-0.756L0.228,-0.565C0.228,-0.542 0.224,-0.516 0.216,-0.488C0.207,-0.46 0.195,-0.432 0.18,-0.404L0.224,-0.404C0.237,-0.445 0.257,-0.475 0.283,-0.495C0.311,-0.515 0.345,-0.525 0.387,-0.525ZM0.339,-0.133C0.374,-0.133 0.401,-0.144 0.42,-0.166C0.439,-0.187 0.449,-0.217 0.449,-0.256C0.449,-0.294 0.439,-0.324 0.42,-0.345C0.401,-0.366 0.374,-0.377 0.339,-0.377C0.304,-0.377 0.277,-0.366 0.258,-0.345C0.239,-0.324 0.229,-0.294 0.229,-0.256C0.229,-0.217 0.239,-0.187 0.258,-0.166C0.277,-0.144 0.304,-0.133 0.339,-0.133Z" style="fill:rgb(255,201,71);fill-rule:nonzero;"/>
        </g>
        <g transform="matrix(50,0,0,50,432.622,129.629)">
            <path d="M0.154,-0.546C0.13,-0.546 0.11,-0.554 0.093,-0.57C0.076,-0.586 0.068,-0.605 0.068,-0.628C0.068,-0.651 0.076,-0.67 0.093,-0.686C0.11,-0.702 0.13,-0.71 0.154,-0.71C0.177,-0.71 0.197,-0.702 0.214,-0.686C0.231,-0.67 0.239,-0.651 0.239,-0.628C0.239,-0.605 0.231,-0.586 0.214,-0.57C0.197,-0.554 0.177,-0.546 0.154,-0.546ZM0.233,-0L0.082,-0L0.082,-0.51L0.233,-0.51L0.233,-0Z" style="fill:rgb(255,201,71);fill-rule:nonzero;"/>
        </g>
        <g transform="matrix(50,0,0,50,448.322,129.629)">
            <path d="M0.345,-0.248L0.496,-0.248L0.496,-0.184C0.496,-0.121 0.478,-0.073 0.443,-0.038C0.408,-0.003 0.359,0.015 0.296,0.015C0.233,0.015 0.184,-0.003 0.149,-0.038C0.114,-0.073 0.096,-0.121 0.096,-0.184L0.096,-0.367L0.018,-0.367L0.018,-0.51L0.101,-0.51L0.101,-0.648L0.247,-0.648L0.247,-0.51L0.486,-0.51L0.486,-0.367L0.247,-0.367L0.247,-0.184C0.248,-0.168 0.253,-0.156 0.262,-0.147C0.271,-0.138 0.282,-0.133 0.296,-0.133C0.311,-0.133 0.323,-0.138 0.332,-0.147C0.341,-0.156 0.345,-0.168 0.345,-0.184L0.345,-0.248Z" style="fill:rgb(255,201,71);fill-rule:nonzero;"/>
        </g>
    </g>
    <g transform="matrix(0.182948,0,0,0.182948,-23.5822,-15.8931)">
        <circle cx="248.582" cy="196.941" r="110.07" style="fill:rgb(10,25,49);"/>
    </g>
    <g transform="matrix(0,-0.119446,0.119446,0,-3.75502,38.3481)">
        <path d="M171.921,234.203L171.921,195.287L133.005,195.287L133.005,116.551L250.657,234.203L171.921,234.203Z" style="fill:rgb(255,201,71);"/>
    </g>
    <g transform="matrix(0,0.119446,-0.119446,0,47.5459,1.92598)">
        <path d="M133.005,195.287L133.005,116.551L250.657,234.203L171.921,234.203L171.921,195.287L133.005,195.287Z" style="fill:rgb(24,90,219);"/>
    </g>
    <g transform="matrix(0,0.119446,-0.119446,0,47.5459,1.92598)">
        <rect x="133.005" y="195.287" width="38.916" height="38.916" style="fill:rgb(10,25,49);"/>
    </g>
    <g transform="matrix(0.508887,0,0,0.508887,21.421,17.8311)">
        <text x="50.777px" y="36.847px" style="font-family:'YgroSansBeta-Book', 'Ygro Sans Beta';font-size:16px;fill:rgb(10,25,49);">V<tspan x="59.577px " y="36.847px ">e</tspan>rsion</text>
    </g>
    <g transform="matrix(0.508887,0,0,0.508887,49.5478,17.8311)">
        <text x="50.777px" y="36.847px" style="font-family:'YgroSansBeta-Book', 'Ygro Sans Beta';font-size:16px;fill:rgb(10,25,49);">NUMBER</text>
    </g>
</svg>
