<svg xmlns="http://www.w3.org/2000/svg" xmlns:xlink="http://www.w3.org/1999/xlink" version="1.1"><metadata>Created by FontForge 20190801 at Mon Jan 4 22:34:42 2021 By Unknown</metadata><defs><font id="YgroSansBeta-Book" horiz-adv-x="600"><font-face x-height="490" ascent="800" bbox="-461 -255 910 935" cap-height="700" descent="-200" font-family="Ygro Sans Beta Book" font-stretch="normal" font-weight="400" panose-1="0 0 5 0 0 0 0 0 0 0" underline-position="-100" underline-thickness="50" unicode-range="U+0020-2265" units-per-em="1000"/><glyph d="M482 0h-402v700h402v-700zM157 632v-564h248v564h-248z" glyph-name=".notdef"/><glyph glyph-name="space" horiz-adv-x="250"/><glyph d="M101 0h-91l241 700h135l241 -700h-91l-43 125h-349zM171 203h295l-84 243q-34 99 -44 176h-39q-10 -77 -44 -176z" glyph-name="A" horiz-adv-x="638" unicode="A"/><glyph d="M101 0h-91l241 700h135l241 -700h-91l-43 125h-349zM171 203h295l-84 243q-34 99 -44 176h-39q-10 -77 -44 -176zM356 729h-62l100 150h100z" glyph-name="Aacute" horiz-adv-x="638" unicode="Á"/><glyph d="M101 0h-91l241 700h135l241 -700h-91l-43 125h-349zM171 203h295l-84 243q-34 99 -44 176h-39q-10 -77 -44 -176zM248 759h-88l130 135h57l130 -135h-88l-70 78z" glyph-name="Acircumflex" horiz-adv-x="638" unicode="Â"/><glyph d="M101 0h-91l241 700h135l241 -700h-91l-43 125h-349zM171 203h295l-84 243q-34 99 -44 176h-39q-10 -77 -44 -176zM191.5 762.5q-17.5 17.5 -17.5 42.5q0 24 17.5 41.5t42.5 17.5q24 0 41.5 -17.5t17.5 -41.5q0 -25 -17.5 -42.5t-41.5 -17.5q-25 0 -42.5 17.5z M361.5 762.5q-17.5 17.5 -17.5 42.5q0 24 17.5 41.5t42.5 17.5q24 0 41.5 -17.5t17.5 -41.5q0 -25 -17.5 -42.5t-41.5 -17.5q-25 0 -42.5 17.5z" glyph-name="Adieresis" horiz-adv-x="638" unicode="Ä"/><glyph d="M101 0h-91l241 700h135l241 -700h-91l-43 125h-349zM171 203h295l-84 243q-34 99 -44 176h-39q-10 -77 -44 -176zM239 879l100 -150h-62l-138 150h100z" glyph-name="Agrave" horiz-adv-x="638" unicode="À"/><glyph d="M101 0h-91l241 700h135l241 -700h-91l-43 125h-349zM171 203h295l-84 243q-34 99 -44 176h-39q-10 -77 -44 -176zM239.5 752.5q-29.5 28.5 -29.5 77.5q0 48 29.5 76.5t79.5 28.5q49 0 78.5 -28.5t29.5 -76.5q0 -49 -29 -77.5t-79 -28.5t-79.5 28.5zM355 790q13 15 13 40 t-13.5 39.5t-35.5 14.5q-23 0 -36.5 -14.5t-13.5 -39.5q0 -26 13.5 -40.5t36.5 -14.5t36 15z" glyph-name="Aring" horiz-adv-x="638" unicode="Å"/><glyph d="M101 0h-91l241 700h135l241 -700h-91l-43 125h-349zM171 203h295l-84 243q-34 99 -44 176h-39q-10 -77 -44 -176zM136 756q0 57 28 87.5t79 30.5q26 0 46 -6.5t48 -19.5q4 -2 16.5 -7.5t22.5 -8t19 -2.5q21 0 33.5 14t12.5 40h61q0 -57 -28 -87.5t-79 -30.5 q-27 0 -46 6.5t-44 18.5q-20 10 -33 14.5t-29 4.5q-21 0 -33.5 -14t-12.5 -40h-61z" glyph-name="Atilde" horiz-adv-x="638" unicode="Ã"/><glyph d="M90 0v700h227q99 0 157 -46.5t58 -126.5q0 -65 -36.5 -102.5t-99.5 -37.5v-40q65 0 103 -43.5t38 -117.5q0 -86 -59 -136t-160 -50h-228zM319 405q57 0 90 28.5t33 78.5t-35 79.5t-94 29.5h-136v-216h142zM316 78q61 0 97 33.5t36 91.5q0 57 -36 90.5t-97 33.5h-139v-249 h139z" glyph-name="B" horiz-adv-x="582" unicode="B"/><glyph d="M129.5 81.5q-84.5 96.5 -84.5 269.5q0 114 38 196t110 125t172 43q78 0 140.5 -32t97.5 -88t35 -127v-17h-87v17q0 48 -24 86.5t-66.5 60.5t-95.5 22q-108 0 -168 -75.5t-60 -210.5q0 -136 60 -212t168 -76q59 0 105.5 21t73 59t26.5 85v17h87v-17q0 -70 -37.5 -125 t-104.5 -86.5t-150 -31.5q-151 0 -235.5 96.5z" glyph-name="C" horiz-adv-x="697" unicode="C"/><glyph d="M570 245h87v-17q0 -69 -36.5 -123.5t-101 -86.5t-146.5 -33l-13 -24q52 1 83 -27.5t31 -78.5q0 -51 -35.5 -80.5t-95.5 -29.5q-36 0 -68 17.5t-51 46.5l26 42q20 -25 45.5 -39.5t47.5 -14.5q33 0 52 15.5t19 42.5q0 32 -18 51t-49 19q-12 0 -33 -7l-20 33l19 37 q-128 17 -198 111.5t-70 251.5q0 114 38 196t110 125t172 43q78 0 140.5 -32t97.5 -88t35 -127v-17h-87v17q0 48 -24 86.5t-66.5 60.5t-95.5 22q-108 0 -168 -75.5t-60 -210.5q0 -136 60 -212t168 -76q59 0 105.5 21t73 59t26.5 85v17z" glyph-name="Ccedilla" horiz-adv-x="697" unicode="Ç"/><glyph d="M90 0v700h182q105 0 181 -41.5t116 -119.5t40 -187q0 -110 -40 -189.5t-116 -121t-181 -41.5h-182zM272 78q116 0 180.5 72t64.5 202q0 127 -64.5 198.5t-180.5 71.5h-95v-544h95z" glyph-name="D" horiz-adv-x="654" unicode="D"/><glyph d="M495 0h-405v700h405v-78h-318v-237h300v-78h-300v-229h318v-78z" glyph-name="E" horiz-adv-x="555" unicode="E"/><glyph d="M495 0h-405v700h405v-78h-318v-237h300v-78h-300v-229h318v-78zM315 760h-62l100 150h100z" glyph-name="Eacute" horiz-adv-x="555" unicode="É"/><glyph d="M495 0h-405v700h405v-78h-318v-237h300v-78h-300v-229h318v-78zM207 790h-88l130 135h57l130 -135h-88l-70 78z" glyph-name="Ecircumflex" horiz-adv-x="555" unicode="Ê"/><glyph d="M495 0h-405v700h405v-78h-318v-237h300v-78h-300v-229h318v-78zM150.5 793.5q-17.5 17.5 -17.5 42.5q0 24 17.5 41.5t42.5 17.5q24 0 41.5 -17.5t17.5 -41.5q0 -25 -17.5 -42.5t-41.5 -17.5q-25 0 -42.5 17.5zM320.5 793.5q-17.5 17.5 -17.5 42.5q0 24 17.5 41.5 t42.5 17.5q24 0 41.5 -17.5t17.5 -41.5q0 -25 -17.5 -42.5t-41.5 -17.5q-25 0 -42.5 17.5z" glyph-name="Edieresis" horiz-adv-x="555" unicode="Ë"/><glyph d="M495 0h-405v700h405v-78h-318v-237h300v-78h-300v-229h318v-78zM198 910l100 -150h-62l-138 150h100z" glyph-name="Egrave" horiz-adv-x="555" unicode="È"/><glyph d="M177 0h-87v700h425v-78h-338v-248h320v-78h-320v-296z" glyph-name="F" horiz-adv-x="545" unicode="F"/><glyph d="M129.5 81.5q-84.5 96.5 -84.5 269.5q0 114 38 196t110 125t172 43q85 0 150.5 -32t101.5 -88t36 -127v-17h-87v17q0 49 -24.5 87.5t-70.5 60t-106 21.5q-108 0 -168 -75.5t-60 -210.5q0 -136 60 -212t168 -76q59 0 106 21t73 58.5t26 85.5v20h-169v78h313v-78h-57v-20 q0 -70 -37.5 -125.5t-104 -86.5t-150.5 -31q-151 0 -235.5 96.5z" glyph-name="G" horiz-adv-x="714" unicode="G"/><glyph d="M129.5 81.5q-84.5 96.5 -84.5 269.5q0 114 38 196t110 125t172 43q85 0 150.5 -32t101.5 -88t36 -127v-17h-87v17q0 49 -24.5 87.5t-70.5 60t-106 21.5q-108 0 -168 -75.5t-60 -210.5q0 -136 60 -212t168 -76q59 0 106 21t73 58.5t26 85.5v20h-169v78h313v-78h-57v-20 q0 -70 -37.5 -125.5t-104 -86.5t-150.5 -31q-151 0 -235.5 96.5zM256 777.5q-43 38.5 -45 99.5h64q2 -34 27 -55.5t63 -21.5q37 0 62 21.5t27 55.5h64q-2 -61 -44.5 -99.5t-108.5 -38.5t-109 38.5z" glyph-name="Gbreve" horiz-adv-x="714" unicode="Ğ"/><glyph d="M177 0h-87v700h87v-338h361v338h87v-700h-87v284h-361v-284z" glyph-name="H" horiz-adv-x="715" unicode="H"/><glyph d="M177 0h-87v700h87v-700z" glyph-name="I" horiz-adv-x="267" unicode="I"/><glyph d="M177 0h-87v700h87v-700zM171 760h-62l100 150h100z" glyph-name="Iacute" horiz-adv-x="267" unicode="Í"/><glyph d="M177 0h-87v700h87v-700zM63 790h-88l130 135h57l130 -135h-88l-70 78z" glyph-name="Icircumflex" horiz-adv-x="267" unicode="Î"/><glyph d="M177 0h-87v700h87v-700zM6.5 793.5q-17.5 17.5 -17.5 42.5q0 24 17.5 41.5t42.5 17.5q24 0 41.5 -17.5t17.5 -41.5q0 -25 -17.5 -42.5t-41.5 -17.5q-25 0 -42.5 17.5zM176.5 793.5q-17.5 17.5 -17.5 42.5q0 24 17.5 41.5t42.5 17.5q24 0 41.5 -17.5t17.5 -41.5 q0 -25 -17.5 -42.5t-41.5 -17.5q-25 0 -42.5 17.5z" glyph-name="Idieresis" horiz-adv-x="267" unicode="Ï"/><glyph d="M177 0h-87v700h87v-700zM54 910l100 -150h-62l-138 150h100z" glyph-name="Igrave" horiz-adv-x="267" unicode="Ì"/><glyph d="M66 38q-51 53 -51 148v40h87v-30q0 -63 28 -98t78 -35t78 35t28 98l1 504h87l-1 -514q0 -95 -51 -148t-142 -53t-142 53z" glyph-name="J" horiz-adv-x="482" unicode="J"/><glyph d="M90 0v700h87v-213q0 -40 -11 -74t-31 -57l30 -27l325 371h111l-269 -306l272 -394h-103l-229 334l-95 -109v-225h-87z" glyph-name="K" horiz-adv-x="650" unicode="K"/><glyph d="M177 700v-622h338v-78h-425v700h87z" glyph-name="L" horiz-adv-x="530" unicode="L"/><glyph d="M90 0v700h134l138 -401q28 -84 44 -137.5t16 -83.5h40q0 30 16 83.5t44 137.5l138 401h134v-700h-87v363q0 103 37 202l-37 15l-199 -580h-132l-199 580l-37 -15q37 -99 37 -202v-363h-87z" glyph-name="M" horiz-adv-x="884" unicode="M"/><glyph d="M90 0v700h115l342 -580l34 20q-16 26 -25 66t-9 81v413h87v-700h-116l-341 580l-34 -20q16 -26 25 -66t9 -81v-413h-87z" glyph-name="N" horiz-adv-x="724" unicode="N"/><glyph d="M90 0v700h115l342 -580l34 20q-16 26 -25 66t-9 81v413h87v-700h-116l-341 580l-34 -20q16 -26 25 -66t9 -81v-413h-87zM179 787q0 57 28 87.5t79 30.5q26 0 46 -6.5t48 -19.5q4 -2 16.5 -7.5t22.5 -8t19 -2.5q21 0 33.5 14t12.5 40h61q0 -57 -28 -87.5t-79 -30.5 q-27 0 -46 6.5t-44 18.5q-20 10 -33 14.5t-29 4.5q-21 0 -33.5 -14t-12.5 -40h-61z" glyph-name="Ntilde" horiz-adv-x="724" unicode="Ñ"/><glyph d="M199.5 29.5q-74.5 44.5 -114.5 127t-40 194.5q0 111 40 193t114.5 126.5t175.5 44.5t175.5 -44.5t114.5 -126.5t40 -193q0 -112 -40 -194.5t-114.5 -127t-175.5 -44.5t-175.5 44.5zM501 98q54 35 83 100t29 153q0 87 -29 151.5t-83 99.5t-126 35t-126 -35t-83 -99.5 t-29 -151.5q0 -88 29 -153t83 -100t126 -35t126 35z" glyph-name="O" horiz-adv-x="750" unicode="O"/><glyph d="M199.5 29.5q-74.5 44.5 -114.5 127t-40 194.5q0 111 40 193t114.5 126.5t175.5 44.5t175.5 -44.5t114.5 -126.5t40 -193q0 -112 -40 -194.5t-114.5 -127t-175.5 -44.5t-175.5 44.5zM501 98q54 35 83 100t29 153q0 87 -29 151.5t-83 99.5t-126 35t-126 -35t-83 -99.5 t-29 -151.5q0 -88 29 -153t83 -100t126 -35t126 35zM412 760h-62l100 150h100z" glyph-name="Oacute" horiz-adv-x="750" unicode="Ó"/><glyph d="M199.5 29.5q-74.5 44.5 -114.5 127t-40 194.5q0 111 40 193t114.5 126.5t175.5 44.5t175.5 -44.5t114.5 -126.5t40 -193q0 -112 -40 -194.5t-114.5 -127t-175.5 -44.5t-175.5 44.5zM501 98q54 35 83 100t29 153q0 87 -29 151.5t-83 99.5t-126 35t-126 -35t-83 -99.5 t-29 -151.5q0 -88 29 -153t83 -100t126 -35t126 35zM304 790h-88l130 135h57l130 -135h-88l-70 78z" glyph-name="Ocircumflex" horiz-adv-x="750" unicode="Ô"/><glyph d="M199.5 29.5q-74.5 44.5 -114.5 127t-40 194.5q0 111 40 193t114.5 126.5t175.5 44.5t175.5 -44.5t114.5 -126.5t40 -193q0 -112 -40 -194.5t-114.5 -127t-175.5 -44.5t-175.5 44.5zM501 98q54 35 83 100t29 153q0 87 -29 151.5t-83 99.5t-126 35t-126 -35t-83 -99.5 t-29 -151.5q0 -88 29 -153t83 -100t126 -35t126 35zM247.5 793.5q-17.5 17.5 -17.5 42.5q0 24 17.5 41.5t42.5 17.5q24 0 41.5 -17.5t17.5 -41.5q0 -25 -17.5 -42.5t-41.5 -17.5q-25 0 -42.5 17.5zM417.5 793.5q-17.5 17.5 -17.5 42.5q0 24 17.5 41.5t42.5 17.5 q24 0 41.5 -17.5t17.5 -41.5q0 -25 -17.5 -42.5t-41.5 -17.5q-25 0 -42.5 17.5z" glyph-name="Odieresis" horiz-adv-x="750" unicode="Ö"/><glyph d="M199.5 29.5q-74.5 44.5 -114.5 127t-40 194.5q0 111 40 193t114.5 126.5t175.5 44.5t175.5 -44.5t114.5 -126.5t40 -193q0 -112 -40 -194.5t-114.5 -127t-175.5 -44.5t-175.5 44.5zM501 98q54 35 83 100t29 153q0 87 -29 151.5t-83 99.5t-126 35t-126 -35t-83 -99.5 t-29 -151.5q0 -88 29 -153t83 -100t126 -35t126 35zM295 910l100 -150h-62l-138 150h100z" glyph-name="Ograve" horiz-adv-x="750" unicode="Ò"/><glyph d="M199.5 29.5q-74.5 44.5 -114.5 127t-40 194.5q0 111 40 193t114.5 126.5t175.5 44.5t175.5 -44.5t114.5 -126.5t40 -193q0 -112 -40 -194.5t-114.5 -127t-175.5 -44.5t-175.5 44.5zM501 98q54 35 83 100t29 153q0 87 -29 151.5t-83 99.5t-126 35t-126 -35t-83 -99.5 t-29 -151.5q0 -88 29 -153t83 -100t126 -35t126 35zM192 787q0 57 28 87.5t79 30.5q26 0 46 -6.5t48 -19.5q4 -2 16.5 -7.5t22.5 -8t19 -2.5q21 0 33.5 14t12.5 40h61q0 -57 -28 -87.5t-79 -30.5q-27 0 -46 6.5t-44 18.5q-20 10 -33 14.5t-29 4.5q-21 0 -33.5 -14t-12.5 -40 h-61z" glyph-name="Otilde" horiz-adv-x="750" unicode="Õ"/><glyph d="M90 0v700h213q116 0 181 -60t65 -166q0 -109 -65 -169.5t-181 -60.5h-126v-244h-87zM303 322q73 0 113.5 40t40.5 112q0 70 -40.5 109t-113.5 39h-126v-300h126z" glyph-name="P" horiz-adv-x="579" unicode="P"/><glyph d="M375 -15q-103 0 -177.5 43.5t-113.5 125.5t-39 197q0 114 39 196t113.5 125t177.5 43q156 0 243 -90.5t87 -253.5q0 -97 -41.5 -180.5t-116.5 -135.5l22 -34q65 42 116 42h33v-78h-343zM550 139q63 76 63 212q0 135 -63 210.5t-175 75.5t-175 -75.5t-63 -210.5 q0 -136 63 -212t175 -76t175 76z" glyph-name="Q" horiz-adv-x="748" unicode="Q"/><glyph d="M90 0v700h223q113 0 174 -51.5t61 -146.5q0 -90 -50.5 -139t-144.5 -50v-40q46 0 82.5 -29t57.5 -82l62 -160l-90 -2l-56 145q-21 55 -60 85t-90 30h-82v-260h-87zM323 338q65 0 100 38.5t35 110.5q0 65 -37.5 100t-107.5 35h-136v-284h146z" glyph-name="R" horiz-adv-x="601" unicode="R"/><glyph d="M100.5 38q-61.5 53 -61.5 148v61h87v-51q0 -63 38.5 -98t107.5 -35q70 0 109.5 30t39.5 83q0 34 -26 63t-73 48l-133 54q-67 27 -104.5 77t-37.5 112q0 87 59 135.5t166 49.5q108 0 168 -53t60 -148v-61h-87v51q0 63 -37 98t-104 35q-64 -1 -99.5 -29t-35.5 -78 q0 -35 27 -66t76 -50l123 -50q70 -28 109 -78t39 -110q0 -90 -63 -140.5t-176 -50.5q-110 0 -171.5 53z" glyph-name="S" horiz-adv-x="556" unicode="S"/><glyph d="M320 0h-87v622h-221v78h528v-78h-220v-622z" glyph-name="T" horiz-adv-x="552" unicode="T"/><glyph d="M149.5 52q-68.5 67 -68.5 186l-1 462h88l1 -452q0 -88 45 -136.5t126 -48.5t126 48.5t45 136.5l1 452h88l-1 -462q0 -119 -68.5 -186t-190.5 -67t-190.5 67z" glyph-name="U" horiz-adv-x="680" unicode="U"/><glyph d="M149.5 52q-68.5 67 -68.5 186l-1 462h88l1 -452q0 -88 45 -136.5t126 -48.5t126 48.5t45 136.5l1 452h88l-1 -462q0 -119 -68.5 -186t-190.5 -67t-190.5 67zM377 730h-62l100 150h100z" glyph-name="Uacute" horiz-adv-x="680" unicode="Ú"/><glyph d="M149.5 52q-68.5 67 -68.5 186l-1 462h88l1 -452q0 -88 45 -136.5t126 -48.5t126 48.5t45 136.5l1 452h88l-1 -462q0 -119 -68.5 -186t-190.5 -67t-190.5 67zM269 760h-88l130 135h57l130 -135h-88l-70 78z" glyph-name="Ucircumflex" horiz-adv-x="680" unicode="Û"/><glyph d="M149.5 52q-68.5 67 -68.5 186l-1 462h88l1 -452q0 -88 45 -136.5t126 -48.5t126 48.5t45 136.5l1 452h88l-1 -462q0 -119 -68.5 -186t-190.5 -67t-190.5 67zM212.5 763.5q-17.5 17.5 -17.5 42.5q0 24 17.5 41.5t42.5 17.5q24 0 41.5 -17.5t17.5 -41.5q0 -25 -17.5 -42.5 t-41.5 -17.5q-25 0 -42.5 17.5zM382.5 763.5q-17.5 17.5 -17.5 42.5q0 24 17.5 41.5t42.5 17.5q24 0 41.5 -17.5t17.5 -41.5q0 -25 -17.5 -42.5t-41.5 -17.5q-25 0 -42.5 17.5z" glyph-name="Udieresis" horiz-adv-x="680" unicode="Ü"/><glyph d="M149.5 52q-68.5 67 -68.5 186l-1 462h88l1 -452q0 -88 45 -136.5t126 -48.5t126 48.5t45 136.5l1 452h88l-1 -462q0 -119 -68.5 -186t-190.5 -67t-190.5 67zM260 880l100 -150h-62l-138 150h100z" glyph-name="Ugrave" horiz-adv-x="680" unicode="Ù"/><glyph d="M237 0l-227 700h89l150 -458q36 -113 36 -164h40q0 51 36 164l150 458h89l-227 -700h-136z" glyph-name="V" horiz-adv-x="610" unicode="V"/><glyph d="M201 0l-191 700h89l109 -414q14 -55 22.5 -111t8.5 -97h40q0 55 5 111t15 97l93 414h120l93 -414q10 -41 15 -97t5 -111h40q0 41 8.5 97t22.5 111l109 414h89l-191 -700h-121l-85 385q-15 65 -20 120t-5 117h-40q0 -62 -5 -117t-20 -120l-85 -385h-121z" glyph-name="W" horiz-adv-x="904" unicode="W"/><glyph d="M201 0l-191 700h89l109 -414q14 -55 22.5 -111t8.5 -97h40q0 55 5 111t15 97l93 414h120l93 -414q10 -41 15 -97t5 -111h40q0 41 8.5 97t22.5 111l109 414h89l-191 -700h-121l-85 385q-15 65 -20 120t-5 117h-40q0 -62 -5 -117t-20 -120l-85 -385h-121zM489 760h-62 l100 150h100z" glyph-name="Wacute" horiz-adv-x="904" unicode="Ẃ"/><glyph d="M201 0l-191 700h89l109 -414q14 -55 22.5 -111t8.5 -97h40q0 55 5 111t15 97l93 414h120l93 -414q10 -41 15 -97t5 -111h40q0 41 8.5 97t22.5 111l109 414h89l-191 -700h-121l-85 385q-15 65 -20 120t-5 117h-40q0 -62 -5 -117t-20 -120l-85 -385h-121zM381 790h-88 l130 135h57l130 -135h-88l-70 78z" glyph-name="Wcircumflex" horiz-adv-x="904" unicode="Ŵ"/><glyph d="M201 0l-191 700h89l109 -414q14 -55 22.5 -111t8.5 -97h40q0 55 5 111t15 97l93 414h120l93 -414q10 -41 15 -97t5 -111h40q0 41 8.5 97t22.5 111l109 414h89l-191 -700h-121l-85 385q-15 65 -20 120t-5 117h-40q0 -62 -5 -117t-20 -120l-85 -385h-121zM324.5 793.5 q-17.5 17.5 -17.5 42.5q0 24 17.5 41.5t42.5 17.5q24 0 41.5 -17.5t17.5 -41.5q0 -25 -17.5 -42.5t-41.5 -17.5q-25 0 -42.5 17.5zM494.5 793.5q-17.5 17.5 -17.5 42.5q0 24 17.5 41.5t42.5 17.5q24 0 41.5 -17.5t17.5 -41.5q0 -25 -17.5 -42.5t-41.5 -17.5 q-25 0 -42.5 17.5z" glyph-name="Wdieresis" horiz-adv-x="904" unicode="Ẅ"/><glyph d="M201 0l-191 700h89l109 -414q14 -55 22.5 -111t8.5 -97h40q0 55 5 111t15 97l93 414h120l93 -414q10 -41 15 -97t5 -111h40q0 41 8.5 97t22.5 111l109 414h89l-191 -700h-121l-85 385q-15 65 -20 120t-5 117h-40q0 -62 -5 -117t-20 -120l-85 -385h-121zM372 910l100 -150 h-62l-138 150h100z" glyph-name="Wgrave" horiz-adv-x="904" unicode="Ẁ"/><glyph d="M10 0l255 367l-232 333h109l201 -297l34 21q-9 14 -9 33q0 46 46 112l90 131h105l-236 -328l261 -372h-109l-225 339l-33 -22q10 -13 10 -34q0 -43 -44 -111l-115 -172h-108z" glyph-name="X" horiz-adv-x="644" unicode="X"/><glyph d="M241 0v268l-234 432h96l130 -240q15 -27 23.5 -68t8.5 -85h40q0 44 8.5 85t23.5 68l130 240h96l-235 -432v-268h-87z" glyph-name="Y" horiz-adv-x="570" unicode="Y"/><glyph d="M241 0v268l-234 432h96l130 -240q15 -27 23.5 -68t8.5 -85h40q0 44 8.5 85t23.5 68l130 240h96l-235 -432v-268h-87zM322 720h-62l100 150h100z" glyph-name="Yacute" horiz-adv-x="570" unicode="Ý"/><glyph d="M241 0v268l-234 432h96l130 -240q15 -27 23.5 -68t8.5 -85h40q0 44 8.5 85t23.5 68l130 240h96l-235 -432v-268h-87zM214 750h-88l130 135h57l130 -135h-88l-70 78z" glyph-name="Ycircumflex" horiz-adv-x="570" unicode="Ŷ"/><glyph d="M241 0v268l-234 432h96l130 -240q15 -27 23.5 -68t8.5 -85h40q0 44 8.5 85t23.5 68l130 240h96l-235 -432v-268h-87zM157.5 753.5q-17.5 17.5 -17.5 42.5q0 24 17.5 41.5t42.5 17.5q24 0 41.5 -17.5t17.5 -41.5q0 -25 -17.5 -42.5t-41.5 -17.5q-25 0 -42.5 17.5z M327.5 753.5q-17.5 17.5 -17.5 42.5q0 24 17.5 41.5t42.5 17.5q24 0 41.5 -17.5t17.5 -41.5q0 -25 -17.5 -42.5t-41.5 -17.5q-25 0 -42.5 17.5z" glyph-name="Ydieresis" horiz-adv-x="570" unicode="Ÿ"/><glyph d="M241 0v268l-234 432h96l130 -240q15 -27 23.5 -68t8.5 -85h40q0 44 8.5 85t23.5 68l130 240h96l-235 -432v-268h-87zM205 870l100 -150h-62l-138 150h100z" glyph-name="Ygrave" horiz-adv-x="570" unicode="Ỳ"/><glyph d="M55 0v88l373 548l-33 23q-12 -18 -38.5 -27.5t-64.5 -9.5h-242v78h458v-88l-373 -548l33 -23q12 18 38.5 27.5t64.5 9.5h253v-78h-469z" glyph-name="Z" horiz-adv-x="569" unicode="Z"/><glyph d="M100.5 25q-45.5 40 -45.5 111q0 60 46.5 100.5t121.5 46.5l179 15v7q0 60 -35 96t-94 36q-52 0 -85 -28t-37 -78h-83q3 86 58 135t147 49q97 0 153.5 -56.5t56.5 -153.5v-305h-61l-2 84h-23q-12 -47 -56.5 -73t-113.5 -26q-81 0 -126.5 40zM358 104.5q44 41.5 44 116.5v2 l-179 -15q-40 -3 -62.5 -22.5t-22.5 -49.5q0 -34 26 -53.5t73 -19.5q77 0 121 41.5z" glyph-name="a" horiz-adv-x="553" unicode="a"/><glyph d="M100.5 25q-45.5 40 -45.5 111q0 60 46.5 100.5t121.5 46.5l179 15v7q0 60 -35 96t-94 36q-52 0 -85 -28t-37 -78h-83q3 86 58 135t147 49q97 0 153.5 -56.5t56.5 -153.5v-305h-61l-2 84h-23q-12 -47 -56.5 -73t-113.5 -26q-81 0 -126.5 40zM358 104.5q44 41.5 44 116.5v2 l-179 -15q-40 -3 -62.5 -22.5t-22.5 -49.5q0 -34 26 -53.5t73 -19.5q77 0 121 41.5zM310 550h-62l100 150h100z" glyph-name="aacute" horiz-adv-x="553" unicode="á"/><glyph d="M100.5 25q-45.5 40 -45.5 111q0 60 46.5 100.5t121.5 46.5l179 15v7q0 60 -35 96t-94 36q-52 0 -85 -28t-37 -78h-83q3 86 58 135t147 49q97 0 153.5 -56.5t56.5 -153.5v-305h-61l-2 84h-23q-12 -47 -56.5 -73t-113.5 -26q-81 0 -126.5 40zM358 104.5q44 41.5 44 116.5v2 l-179 -15q-40 -3 -62.5 -22.5t-22.5 -49.5q0 -34 26 -53.5t73 -19.5q77 0 121 41.5zM202 580h-88l130 135h57l130 -135h-88l-70 78z" glyph-name="acircumflex" horiz-adv-x="553" unicode="â"/><glyph d="M100.5 25q-45.5 40 -45.5 111q0 60 46.5 100.5t121.5 46.5l179 15v7q0 60 -35 96t-94 36q-52 0 -85 -28t-37 -78h-83q3 86 58 135t147 49q97 0 153.5 -56.5t56.5 -153.5v-305h-61l-2 84h-23q-12 -47 -56.5 -73t-113.5 -26q-81 0 -126.5 40zM358 104.5q44 41.5 44 116.5v2 l-179 -15q-40 -3 -62.5 -22.5t-22.5 -49.5q0 -34 26 -53.5t73 -19.5q77 0 121 41.5zM145.5 583.5q-17.5 17.5 -17.5 42.5q0 24 17.5 41.5t42.5 17.5q24 0 41.5 -17.5t17.5 -41.5q0 -25 -17.5 -42.5t-41.5 -17.5q-25 0 -42.5 17.5zM315.5 583.5q-17.5 17.5 -17.5 42.5 q0 24 17.5 41.5t42.5 17.5q24 0 41.5 -17.5t17.5 -41.5q0 -25 -17.5 -42.5t-41.5 -17.5q-25 0 -42.5 17.5z" glyph-name="adieresis" horiz-adv-x="553" unicode="ä"/><glyph d="M100.5 25q-45.5 40 -45.5 111q0 60 46.5 100.5t121.5 46.5l179 15v7q0 60 -35 96t-94 36q-52 0 -85 -28t-37 -78h-83q3 86 58 135t147 49q97 0 153.5 -56.5t56.5 -153.5v-305h-61l-2 84h-23q-12 -47 -56.5 -73t-113.5 -26q-81 0 -126.5 40zM358 104.5q44 41.5 44 116.5v2 l-179 -15q-40 -3 -62.5 -22.5t-22.5 -49.5q0 -34 26 -53.5t73 -19.5q77 0 121 41.5zM193 700l100 -150h-62l-138 150h100z" glyph-name="agrave" horiz-adv-x="553" unicode="à"/><glyph d="M100.5 25q-45.5 40 -45.5 111q0 60 46.5 100.5t121.5 46.5l179 15v7q0 60 -35 96t-94 36q-52 0 -85 -28t-37 -78h-83q3 86 58 135t147 49q97 0 153.5 -56.5t56.5 -153.5v-305h-61l-2 84h-23q-12 -47 -56.5 -73t-113.5 -26q-81 0 -126.5 40zM358 104.5q44 41.5 44 116.5v2 l-179 -15q-40 -3 -62.5 -22.5t-22.5 -49.5q0 -34 26 -53.5t73 -19.5q77 0 121 41.5zM193.5 573.5q-29.5 28.5 -29.5 77.5q0 48 29.5 76.5t79.5 28.5q49 0 78.5 -28.5t29.5 -76.5q0 -49 -29 -77.5t-79 -28.5t-79.5 28.5zM309 611q13 15 13 40t-13.5 39.5t-35.5 14.5 q-23 0 -36.5 -14.5t-13.5 -39.5q0 -26 13.5 -40.5t36.5 -14.5t36 15z" glyph-name="aring" horiz-adv-x="553" unicode="å"/><glyph d="M100.5 25q-45.5 40 -45.5 111q0 60 46.5 100.5t121.5 46.5l179 15v7q0 60 -35 96t-94 36q-52 0 -85 -28t-37 -78h-83q3 86 58 135t147 49q97 0 153.5 -56.5t56.5 -153.5v-305h-61l-2 84h-23q-12 -47 -56.5 -73t-113.5 -26q-81 0 -126.5 40zM358 104.5q44 41.5 44 116.5v2 l-179 -15q-40 -3 -62.5 -22.5t-22.5 -49.5q0 -34 26 -53.5t73 -19.5q77 0 121 41.5zM90 577q0 57 28 87.5t79 30.5q26 0 46 -6.5t48 -19.5q4 -2 16.5 -7.5t22.5 -8t19 -2.5q21 0 33.5 14t12.5 40h61q0 -57 -28 -87.5t-79 -30.5q-27 0 -46 6.5t-44 18.5q-20 10 -33 14.5 t-29 4.5q-21 0 -33.5 -14t-12.5 -40h-61z" glyph-name="atilde" horiz-adv-x="553" unicode="ã"/><glyph d="M497.5 438q55.5 -67 55.5 -191q0 -126 -56 -194t-159 -68q-62 0 -106 28.5t-68 83.5h-22q17 -50 16 -97h-72v756h80v-235q0 -73 -26 -128h23q49 112 175 112q104 0 159.5 -67zM431 110.5q39 47.5 39 136.5q0 87 -39 133.5t-112 46.5t-112.5 -46.5t-39.5 -133.5 q0 -89 39.5 -136.5t112.5 -47.5t112 47.5z" glyph-name="b" horiz-adv-x="598" unicode="b"/><glyph d="M161 17q-56 32 -86 91t-30 138t30 137.5t86 90t131 31.5q96 0 152 -49.5t56 -133.5v-8h-81v8q0 48 -34.5 76.5t-92.5 28.5q-75 0 -118.5 -49t-43.5 -132q0 -84 43.5 -133.5t118.5 -49.5q64 0 101.5 29t37.5 79v8h81v-8q0 -86 -59.5 -136t-160.5 -50q-75 0 -131 32z" glyph-name="c" horiz-adv-x="552" unicode="c"/><glyph d="M431 179h81v-8q0 -84 -57 -134t-155 -52l-13 -24q52 1 83 -27.5t31 -78.5q0 -51 -35.5 -80.5t-95.5 -29.5q-36 0 -68 17.5t-51 46.5l26 42q20 -25 45.5 -39.5t47.5 -14.5q33 0 52 15.5t19 42.5q0 32 -18 51t-49 19q-12 0 -33 -7l-20 33l20 38q-92 16 -144 84t-52 173 q0 79 30 137.5t86 90t131 31.5q96 0 152 -49.5t56 -133.5v-8h-81v8q0 48 -34.5 76.5t-92.5 28.5q-75 0 -118.5 -49t-43.5 -132q0 -84 43.5 -133.5t118.5 -49.5q64 0 101.5 29t37.5 79v8z" glyph-name="ccedilla" horiz-adv-x="552" unicode="ç"/><glyph d="M432 756h80v-756h-72q-1 47 16 97h-22q-24 -55 -68 -83.5t-106 -28.5q-103 0 -159 68t-56 194q0 124 55.5 191t159.5 67q126 0 175 -112h23q-26 55 -26 128v235zM391.5 110.5q39.5 47.5 39.5 136.5q0 87 -39.5 133.5t-112.5 46.5t-112 -46.5t-39 -133.5q0 -89 39 -136.5 t112 -47.5t112.5 47.5z" glyph-name="d" horiz-adv-x="598" unicode="d"/><glyph d="M114.5 55q-69.5 70 -69.5 191q0 79 29.5 137.5t84 90t126.5 31.5q68 0 123 -30.5t86 -85t31 -123.5q0 -48 -7 -67h-384q12 -64 57 -100t116 -36q52 0 87.5 20.5t35.5 52.5v1h85v-1q0 -43 -27.5 -77.5t-75 -54t-105.5 -19.5q-123 0 -192.5 70zM439 272q-7 72 -48 113.5 t-106 41.5t-106 -41.5t-48 -113.5h308z" glyph-name="e" horiz-adv-x="538" unicode="e"/><glyph d="M114.5 55q-69.5 70 -69.5 191q0 79 29.5 137.5t84 90t126.5 31.5q68 0 123 -30.5t86 -85t31 -123.5q0 -48 -7 -67h-384q12 -64 57 -100t116 -36q52 0 87.5 20.5t35.5 52.5v1h85v-1q0 -43 -27.5 -77.5t-75 -54t-105.5 -19.5q-123 0 -192.5 70zM439 272q-7 72 -48 113.5 t-106 41.5t-106 -41.5t-48 -113.5h308zM306 550h-62l100 150h100z" glyph-name="eacute" horiz-adv-x="538" unicode="é"/><glyph d="M114.5 55q-69.5 70 -69.5 191q0 79 29.5 137.5t84 90t126.5 31.5q68 0 123 -30.5t86 -85t31 -123.5q0 -48 -7 -67h-384q12 -64 57 -100t116 -36q52 0 87.5 20.5t35.5 52.5v1h85v-1q0 -43 -27.5 -77.5t-75 -54t-105.5 -19.5q-123 0 -192.5 70zM439 272q-7 72 -48 113.5 t-106 41.5t-106 -41.5t-48 -113.5h308zM198 580h-88l130 135h57l130 -135h-88l-70 78z" glyph-name="ecircumflex" horiz-adv-x="538" unicode="ê"/><glyph d="M114.5 55q-69.5 70 -69.5 191q0 79 29.5 137.5t84 90t126.5 31.5q68 0 123 -30.5t86 -85t31 -123.5q0 -48 -7 -67h-384q12 -64 57 -100t116 -36q52 0 87.5 20.5t35.5 52.5v1h85v-1q0 -43 -27.5 -77.5t-75 -54t-105.5 -19.5q-123 0 -192.5 70zM439 272q-7 72 -48 113.5 t-106 41.5t-106 -41.5t-48 -113.5h308zM141.5 583.5q-17.5 17.5 -17.5 42.5q0 24 17.5 41.5t42.5 17.5q24 0 41.5 -17.5t17.5 -41.5q0 -25 -17.5 -42.5t-41.5 -17.5q-25 0 -42.5 17.5zM311.5 583.5q-17.5 17.5 -17.5 42.5q0 24 17.5 41.5t42.5 17.5q24 0 41.5 -17.5 t17.5 -41.5q0 -25 -17.5 -42.5t-41.5 -17.5q-25 0 -42.5 17.5z" glyph-name="edieresis" horiz-adv-x="538" unicode="ë"/><glyph d="M114.5 55q-69.5 70 -69.5 191q0 79 29.5 137.5t84 90t126.5 31.5q68 0 123 -30.5t86 -85t31 -123.5q0 -48 -7 -67h-384q12 -64 57 -100t116 -36q52 0 87.5 20.5t35.5 52.5v1h85v-1q0 -43 -27.5 -77.5t-75 -54t-105.5 -19.5q-123 0 -192.5 70zM439 272q-7 72 -48 113.5 t-106 41.5t-106 -41.5t-48 -113.5h308zM189 700l100 -150h-62l-138 150h100z" glyph-name="egrave" horiz-adv-x="538" unicode="è"/><glyph d="M372 596h-81v29q0 32 -17 50t-47 18t-47 -18t-17 -50v-135h170v-73h-170v-417h-81v417h-60v73h60v135q0 69 38.5 107.5t106.5 38.5t106.5 -38.5t38.5 -107.5v-29z" glyph-name="f" horiz-adv-x="352" unicode="f"/><glyph d="M482 490v-521q0 -96 -56.5 -152.5t-153.5 -56.5q-92 0 -147 49t-58 135h83q4 -50 37 -78t85 -28q59 0 94 36t35 95q0 48 6.5 86t17.5 84h-23q-20 -56 -58.5 -85t-93.5 -29q-94 0 -144.5 62.5t-50.5 178.5q0 115 50.5 177t144.5 62q55 0 93.5 -28.5t57.5 -83.5h24 q-14 61 -13 97h70zM367 145q34 42 34 121q0 77 -34 119t-98 42q-63 0 -97 -42t-34 -119q0 -79 34 -121t97 -42q64 0 98 42z" glyph-name="g" horiz-adv-x="560" unicode="g"/><glyph d="M482 490v-521q0 -96 -56.5 -152.5t-153.5 -56.5q-92 0 -147 49t-58 135h83q4 -50 37 -78t85 -28q59 0 94 36t35 95q0 48 6.5 86t17.5 84h-23q-20 -56 -58.5 -85t-93.5 -29q-94 0 -144.5 62.5t-50.5 178.5q0 115 50.5 177t144.5 62q55 0 93.5 -28.5t57.5 -83.5h24 q-14 61 -13 97h70zM367 145q34 42 34 121q0 77 -34 119t-98 42q-63 0 -97 -42t-34 -119q0 -79 34 -121t97 -42q64 0 98 42zM187 600.5q-43 38.5 -45 99.5h64q2 -34 27 -55.5t63 -21.5q37 0 62 21.5t27 55.5h64q-2 -61 -44.5 -99.5t-108.5 -38.5t-109 38.5z" glyph-name="gbreve" horiz-adv-x="560" unicode="ğ"/><glyph d="M444.5 453q44.5 -52 44.5 -150v-303h-81v293q0 65 -30.5 99.5t-88.5 34.5q-56 0 -89 -40t-33 -108v-279h-81v756h80v-235q0 -73 -26 -128h24q33 112 151 112q85 0 129.5 -52z" glyph-name="h" horiz-adv-x="567" unicode="h"/><glyph d="M95.5 608.5q-17.5 17.5 -17.5 42.5q0 24 17.5 41.5t42.5 17.5q24 0 41.5 -17.5t17.5 -41.5q0 -25 -17.5 -42.5t-41.5 -17.5q-25 0 -42.5 17.5zM178 0h-81v490h81v-490z" glyph-name="i" horiz-adv-x="257" unicode="i"/><glyph d="M169 0h-81v490h81v-490z" glyph-name="dotlessi" horiz-adv-x="257" unicode="ı"/><glyph d="M169 0h-81v490h81v-490zM166 550h-62l100 150h100z" glyph-name="iacute" horiz-adv-x="257" unicode="í"/><glyph d="M169 0h-81v490h81v-490zM58 580h-88l130 135h57l130 -135h-88l-70 78z" glyph-name="icircumflex" horiz-adv-x="257" unicode="î"/><glyph d="M169 0h-81v490h81v-490zM1.5 583.5q-17.5 17.5 -17.5 42.5q0 24 17.5 41.5t42.5 17.5q24 0 41.5 -17.5t17.5 -41.5q0 -25 -17.5 -42.5t-41.5 -17.5q-25 0 -42.5 17.5zM171.5 583.5q-17.5 17.5 -17.5 42.5q0 24 17.5 41.5t42.5 17.5q24 0 41.5 -17.5t17.5 -41.5 q0 -25 -17.5 -42.5t-41.5 -17.5q-25 0 -42.5 17.5z" glyph-name="idieresis" horiz-adv-x="257" unicode="ï"/><glyph d="M169 0h-81v490h81v-490zM49 700l100 -150h-62l-138 150h100z" glyph-name="igrave" horiz-adv-x="257" unicode="ì"/><glyph d="M82.5 614.5q-17.5 17.5 -17.5 42.5q0 24 17.5 41.5t42.5 17.5q24 0 41.5 -17.5t17.5 -41.5q0 -25 -17.5 -42.5t-41.5 -17.5q-25 0 -42.5 17.5zM-10 -230v73h35q25 0 38.5 15t13.5 42v590h81v-575q0 -68 -33.5 -106.5t-94.5 -38.5h-40z" glyph-name="j" horiz-adv-x="246" unicode="j"/><glyph d="M408 0l-181 233l-60 -64v-169h-81v756h81v-386q0 -28 -9.5 -55.5t-26.5 -45.5l16 -16l239 237h104l-206 -209l226 -281h-102z" glyph-name="k" horiz-adv-x="520" unicode="k"/><glyph d="M167 0h-81v756h81v-756z" glyph-name="l" horiz-adv-x="253" unicode="l"/><glyph d="M759.5 456q47.5 -49 47.5 -133v-323h-81v303q0 60 -29.5 92t-85.5 32q-54 0 -88.5 -34t-34.5 -87v-306h-81v303q0 60 -29.5 92t-85.5 32q-54 0 -88.5 -36t-34.5 -92v-299h-81v490h70q1 -47 -16 -97h23q17 55 54.5 83.5t93.5 28.5t96.5 -30.5t52.5 -82.5h21q11 52 51 82.5 t98 30.5q80 0 127.5 -49z" glyph-name="m" horiz-adv-x="885" unicode="m"/><glyph d="M88 0v490h70q1 -47 -16 -97h24q33 112 151 112q85 0 129.5 -52t44.5 -150v-303h-81v293q0 65 -30.5 99.5t-88.5 34.5q-56 0 -89 -40t-33 -108v-279h-81z" glyph-name="n" horiz-adv-x="569" unicode="n"/><glyph d="M88 0v490h70q1 -47 -16 -97h24q33 112 151 112q85 0 129.5 -52t44.5 -150v-303h-81v293q0 65 -30.5 99.5t-88.5 34.5q-56 0 -89 -40t-33 -108v-279h-81zM102 577q0 57 28 87.5t79 30.5q26 0 46 -6.5t48 -19.5q4 -2 16.5 -7.5t22.5 -8t19 -2.5q21 0 33.5 14t12.5 40h61 q0 -57 -28 -87.5t-79 -30.5q-27 0 -46 6.5t-44 18.5q-20 10 -33 14.5t-29 4.5q-21 0 -33.5 -14t-12.5 -40h-61z" glyph-name="ntilde" horiz-adv-x="569" unicode="ñ"/><glyph d="M162.5 17q-56.5 32 -87 91t-30.5 138t30.5 137.5t87 90t132.5 31.5t132.5 -31.5t87 -90t30.5 -137.5t-30.5 -138t-87 -91t-132.5 -32t-132.5 32zM415.5 112.5q44.5 49.5 44.5 133.5q0 83 -44.5 132t-120.5 49t-120.5 -49t-44.5 -132q0 -84 44.5 -133.5t120.5 -49.5 t120.5 49.5z" glyph-name="o" horiz-adv-x="590" unicode="o"/><glyph d="M162.5 17q-56.5 32 -87 91t-30.5 138t30.5 137.5t87 90t132.5 31.5t132.5 -31.5t87 -90t30.5 -137.5t-30.5 -138t-87 -91t-132.5 -32t-132.5 32zM415.5 112.5q44.5 49.5 44.5 133.5q0 83 -44.5 132t-120.5 49t-120.5 -49t-44.5 -132q0 -84 44.5 -133.5t120.5 -49.5 t120.5 49.5zM332 550h-62l100 150h100z" glyph-name="oacute" horiz-adv-x="590" unicode="ó"/><glyph d="M162.5 17q-56.5 32 -87 91t-30.5 138t30.5 137.5t87 90t132.5 31.5t132.5 -31.5t87 -90t30.5 -137.5t-30.5 -138t-87 -91t-132.5 -32t-132.5 32zM415.5 112.5q44.5 49.5 44.5 133.5q0 83 -44.5 132t-120.5 49t-120.5 -49t-44.5 -132q0 -84 44.5 -133.5t120.5 -49.5 t120.5 49.5zM224 580h-88l130 135h57l130 -135h-88l-70 78z" glyph-name="ocircumflex" horiz-adv-x="590" unicode="ô"/><glyph d="M162.5 17q-56.5 32 -87 91t-30.5 138t30.5 137.5t87 90t132.5 31.5t132.5 -31.5t87 -90t30.5 -137.5t-30.5 -138t-87 -91t-132.5 -32t-132.5 32zM415.5 112.5q44.5 49.5 44.5 133.5q0 83 -44.5 132t-120.5 49t-120.5 -49t-44.5 -132q0 -84 44.5 -133.5t120.5 -49.5 t120.5 49.5zM167.5 583.5q-17.5 17.5 -17.5 42.5q0 24 17.5 41.5t42.5 17.5q24 0 41.5 -17.5t17.5 -41.5q0 -25 -17.5 -42.5t-41.5 -17.5q-25 0 -42.5 17.5zM337.5 583.5q-17.5 17.5 -17.5 42.5q0 24 17.5 41.5t42.5 17.5q24 0 41.5 -17.5t17.5 -41.5q0 -25 -17.5 -42.5 t-41.5 -17.5q-25 0 -42.5 17.5z" glyph-name="odieresis" horiz-adv-x="590" unicode="ö"/><glyph d="M162.5 17q-56.5 32 -87 91t-30.5 138t30.5 137.5t87 90t132.5 31.5t132.5 -31.5t87 -90t30.5 -137.5t-30.5 -138t-87 -91t-132.5 -32t-132.5 32zM415.5 112.5q44.5 49.5 44.5 133.5q0 83 -44.5 132t-120.5 49t-120.5 -49t-44.5 -132q0 -84 44.5 -133.5t120.5 -49.5 t120.5 49.5zM215 700l100 -150h-62l-138 150h100z" glyph-name="ograve" horiz-adv-x="590" unicode="ò"/><glyph d="M162.5 17q-56.5 32 -87 91t-30.5 138t30.5 137.5t87 90t132.5 31.5t132.5 -31.5t87 -90t30.5 -137.5t-30.5 -138t-87 -91t-132.5 -32t-132.5 32zM415.5 112.5q44.5 49.5 44.5 133.5q0 83 -44.5 132t-120.5 49t-120.5 -49t-44.5 -132q0 -84 44.5 -133.5t120.5 -49.5 t120.5 49.5zM112 577q0 57 28 87.5t79 30.5q26 0 46 -6.5t48 -19.5q4 -2 16.5 -7.5t22.5 -8t19 -2.5q21 0 33.5 14t12.5 40h61q0 -57 -28 -87.5t-79 -30.5q-27 0 -46 6.5t-44 18.5q-20 10 -33 14.5t-29 4.5q-21 0 -33.5 -14t-12.5 -40h-61z" glyph-name="otilde" horiz-adv-x="590" unicode="õ"/><glyph d="M476.5 438q55.5 -67 55.5 -191q0 -126 -56 -194t-159 -68q-62 0 -106 28.5t-67 82.5h-25q26 -55 26 -128v-198h-80v719h72q1 -47 -16 -97h21q23 56 67.5 84.5t107.5 28.5q104 0 159.5 -67zM410 110.5q39 47.5 39 136.5q0 87 -39 133.5t-112 46.5t-112.5 -46.5 t-39.5 -133.5q0 -89 39.5 -136.5t112.5 -47.5t112 47.5z" glyph-name="p" horiz-adv-x="577" unicode="p"/><glyph d="M512 489v-719h-80v198q0 73 26 128h-25q-23 -54 -67 -82.5t-106 -28.5q-103 0 -159 68t-56 194q0 124 55.5 191t159.5 67q63 0 107.5 -28.5t67.5 -84.5h21q-17 50 -16 97h72zM391.5 110.5q39.5 47.5 39.5 136.5q0 87 -39.5 133.5t-112.5 46.5t-112 -46.5t-39 -133.5 q0 -89 39 -136.5t112 -47.5t112.5 47.5z" glyph-name="q" horiz-adv-x="577" unicode="q"/><glyph d="M408 464.5q39 -40.5 39 -111.5v-49h-81v29q0 44 -24.5 69t-66.5 25q-49 0 -77.5 -37t-28.5 -101v-289h-81v490h70q1 -47 -16 -97h23q30 112 138 112q66 0 105 -40.5z" glyph-name="r" horiz-adv-x="463" unicode="r"/><glyph d="M90.5 28.5q-50.5 43.5 -50.5 122.5v29h81v-29q0 -41 29.5 -64.5t82.5 -23.5q46 0 72.5 16t26.5 44q0 22 -16.5 41t-45.5 30l-114 46q-44 18 -70.5 52.5t-26.5 75.5q0 64 45.5 100.5t123.5 36.5q87 0 135.5 -43.5t48.5 -122.5v-29h-81v29q0 41 -27 64.5t-76 23.5 q-38 0 -62 -16t-24 -43q0 -19 14.5 -34.5t40.5 -26.5l105 -42q53 -21 83 -58.5t30 -83.5q0 -65 -48 -101.5t-134 -36.5q-92 0 -142.5 43.5z" glyph-name="s" horiz-adv-x="460" unicode="s"/><glyph d="M381 417h-209v-276q0 -37 17 -57.5t47 -20.5t47 20.5t17 57.5v29h81v-29q0 -73 -38.5 -114.5t-106.5 -41.5t-106.5 41.5t-38.5 114.5v276h-69v73h71v160h79v-160h209v-73z" glyph-name="t" horiz-adv-x="417" unicode="t"/><glyph d="M123 41q-47 56 -47 156v293h81v-283q0 -68 31.5 -106t86.5 -38q59 0 92.5 36.5t33.5 101.5v289h81v-490h-70q-1 47 16 97h-21q-17 -55 -55.5 -83.5t-97.5 -28.5q-84 0 -131 56z" glyph-name="u" horiz-adv-x="564" unicode="u"/><glyph d="M123 41q-47 56 -47 156v293h81v-283q0 -68 31.5 -106t86.5 -38q59 0 92.5 36.5t33.5 101.5v289h81v-490h-70q-1 47 16 97h-21q-17 -55 -55.5 -83.5t-97.5 -28.5q-84 0 -131 56zM319 550h-62l100 150h100z" glyph-name="uacute" horiz-adv-x="564" unicode="ú"/><glyph d="M123 41q-47 56 -47 156v293h81v-283q0 -68 31.5 -106t86.5 -38q59 0 92.5 36.5t33.5 101.5v289h81v-490h-70q-1 47 16 97h-21q-17 -55 -55.5 -83.5t-97.5 -28.5q-84 0 -131 56zM211 580h-88l130 135h57l130 -135h-88l-70 78z" glyph-name="ucircumflex" horiz-adv-x="564" unicode="û"/><glyph d="M123 41q-47 56 -47 156v293h81v-283q0 -68 31.5 -106t86.5 -38q59 0 92.5 36.5t33.5 101.5v289h81v-490h-70q-1 47 16 97h-21q-17 -55 -55.5 -83.5t-97.5 -28.5q-84 0 -131 56zM154.5 583.5q-17.5 17.5 -17.5 42.5q0 24 17.5 41.5t42.5 17.5q24 0 41.5 -17.5t17.5 -41.5 q0 -25 -17.5 -42.5t-41.5 -17.5q-25 0 -42.5 17.5zM324.5 583.5q-17.5 17.5 -17.5 42.5q0 24 17.5 41.5t42.5 17.5q24 0 41.5 -17.5t17.5 -41.5q0 -25 -17.5 -42.5t-41.5 -17.5q-25 0 -42.5 17.5z" glyph-name="udieresis" horiz-adv-x="564" unicode="ü"/><glyph d="M123 41q-47 56 -47 156v293h81v-283q0 -68 31.5 -106t86.5 -38q59 0 92.5 36.5t33.5 101.5v289h81v-490h-70q-1 47 16 97h-21q-17 -55 -55.5 -83.5t-97.5 -28.5q-84 0 -131 56zM202 700l100 -150h-62l-138 150h100z" glyph-name="ugrave" horiz-adv-x="564" unicode="ù"/><glyph d="M191 0l-179 490h86l93 -255q18 -49 29.5 -97.5t11.5 -74.5h24q0 26 11.5 74.5t29.5 97.5l93 255h86l-179 -490h-106z" glyph-name="v" horiz-adv-x="488" unicode="v"/><glyph d="M132 0l-119 490h83l65 -265q12 -49 19 -94t7 -72h24q0 49 28 166l63 265h120l63 -265q28 -117 28 -166h24q0 27 7 72t19 94l65 265h83l-119 -490h-134l-66 269q-18 75 -18 156h-24q0 -81 -18 -156l-66 -269h-134z" glyph-name="w" horiz-adv-x="724" unicode="w"/><glyph d="M132 0l-119 490h83l65 -265q12 -49 19 -94t7 -72h24q0 49 28 166l63 265h120l63 -265q28 -117 28 -166h24q0 27 7 72t19 94l65 265h83l-119 -490h-134l-66 269q-18 75 -18 156h-24q0 -81 -18 -156l-66 -269h-134zM399 550h-62l100 150h100z" glyph-name="wacute" horiz-adv-x="724" unicode="ẃ"/><glyph d="M132 0l-119 490h83l65 -265q12 -49 19 -94t7 -72h24q0 49 28 166l63 265h120l63 -265q28 -117 28 -166h24q0 27 7 72t19 94l65 265h83l-119 -490h-134l-66 269q-18 75 -18 156h-24q0 -81 -18 -156l-66 -269h-134zM291 580h-88l130 135h57l130 -135h-88l-70 78z" glyph-name="wcircumflex" horiz-adv-x="724" unicode="ŵ"/><glyph d="M132 0l-119 490h83l65 -265q12 -49 19 -94t7 -72h24q0 49 28 166l63 265h120l63 -265q28 -117 28 -166h24q0 27 7 72t19 94l65 265h83l-119 -490h-134l-66 269q-18 75 -18 156h-24q0 -81 -18 -156l-66 -269h-134zM234.5 583.5q-17.5 17.5 -17.5 42.5q0 24 17.5 41.5 t42.5 17.5q24 0 41.5 -17.5t17.5 -41.5q0 -25 -17.5 -42.5t-41.5 -17.5q-25 0 -42.5 17.5zM404.5 583.5q-17.5 17.5 -17.5 42.5q0 24 17.5 41.5t42.5 17.5q24 0 41.5 -17.5t17.5 -41.5q0 -25 -17.5 -42.5t-41.5 -17.5q-25 0 -42.5 17.5z" glyph-name="wdieresis" horiz-adv-x="724" unicode="ẅ"/><glyph d="M132 0l-119 490h83l65 -265q12 -49 19 -94t7 -72h24q0 49 28 166l63 265h120l63 -265q28 -117 28 -166h24q0 27 7 72t19 94l65 265h83l-119 -490h-134l-66 269q-18 75 -18 156h-24q0 -81 -18 -156l-66 -269h-134zM282 700l100 -150h-62l-138 150h100z" glyph-name="wgrave" horiz-adv-x="724" unicode="ẁ"/><glyph d="M13 0l202 262l-170 228h97l150 -216l18 13q-9 12 -9 32q0 36 29 75l71 96h103l-176 -225l200 -265h-103l-179 242l-18 -14q9 -12 9 -30q0 -36 -31 -77l-87 -121h-106z" glyph-name="x" horiz-adv-x="541" unicode="x"/><glyph d="M24.5 -207.5q-35.5 36.5 -35.5 94.5h79q0 -23 13.5 -40.5t41.5 -17.5q30 0 47.5 22.5t33.5 63.5l32 85h-50l-165 490h85l147 -443l165 443h80l-224 -619q-19 -54 -59.5 -84.5t-91.5 -30.5q-63 0 -98.5 36.5z" glyph-name="y" horiz-adv-x="510" unicode="y"/><glyph d="M24.5 -207.5q-35.5 36.5 -35.5 94.5h79q0 -23 13.5 -40.5t41.5 -17.5q30 0 47.5 22.5t33.5 63.5l32 85h-50l-165 490h85l147 -443l165 443h80l-224 -619q-19 -54 -59.5 -84.5t-91.5 -30.5q-63 0 -98.5 36.5zM292 550h-62l100 150h100z" glyph-name="yacute" horiz-adv-x="510" unicode="ý"/><glyph d="M24.5 -207.5q-35.5 36.5 -35.5 94.5h79q0 -23 13.5 -40.5t41.5 -17.5q30 0 47.5 22.5t33.5 63.5l32 85h-50l-165 490h85l147 -443l165 443h80l-224 -619q-19 -54 -59.5 -84.5t-91.5 -30.5q-63 0 -98.5 36.5zM184 580h-88l130 135h57l130 -135h-88l-70 78z" glyph-name="ycircumflex" horiz-adv-x="510" unicode="ŷ"/><glyph d="M24.5 -207.5q-35.5 36.5 -35.5 94.5h79q0 -23 13.5 -40.5t41.5 -17.5q30 0 47.5 22.5t33.5 63.5l32 85h-50l-165 490h85l147 -443l165 443h80l-224 -619q-19 -54 -59.5 -84.5t-91.5 -30.5q-63 0 -98.5 36.5zM127.5 583.5q-17.5 17.5 -17.5 42.5q0 24 17.5 41.5t42.5 17.5 q24 0 41.5 -17.5t17.5 -41.5q0 -25 -17.5 -42.5t-41.5 -17.5q-25 0 -42.5 17.5zM297.5 583.5q-17.5 17.5 -17.5 42.5q0 24 17.5 41.5t42.5 17.5q24 0 41.5 -17.5t17.5 -41.5q0 -25 -17.5 -42.5t-41.5 -17.5q-25 0 -42.5 17.5z" glyph-name="ydieresis" horiz-adv-x="510" unicode="ÿ"/><glyph d="M24.5 -207.5q-35.5 36.5 -35.5 94.5h79q0 -23 13.5 -40.5t41.5 -17.5q30 0 47.5 22.5t33.5 63.5l32 85h-50l-165 490h85l147 -443l165 443h80l-224 -619q-19 -54 -59.5 -84.5t-91.5 -30.5q-63 0 -98.5 36.5zM175 700l100 -150h-62l-138 150h100z" glyph-name="ygrave" horiz-adv-x="510" unicode="ỳ"/><glyph d="M45 0v73l289 364l-18 14q-13 -18 -30 -26t-51 -8h-182v73h365v-73l-283 -361l18 -14q13 17 29.5 24t51.5 7h189v-73h-378z" glyph-name="z" horiz-adv-x="468" unicode="z"/><glyph d="M146 57q-68 89 -68 293t68 293q56 72 154 72t154 -72q68 -89 68 -293t-68 -293q-55 -72 -154 -72q-98 0 -154 72zM389 109q46 70 46 241t-46 241q-33 48 -89 48t-89 -48q-46 -70 -46 -241t46 -241q33 -48 89 -48t89 48z" glyph-name="zero" unicode="0"/><glyph d="M109 -1v77h165v382q0 31 10 55t32 54l-32 24q-22 -30 -40.5 -42.5t-51.5 -12.5h-44v65q53 0 87.5 27t34.5 72h86v-624h162v-77h-409z" glyph-name="one" unicode="1"/><glyph d="M66 0v76l280 294q72 75 72 147q0 56 -35.5 89t-91.5 33t-91.5 -33t-35.5 -89q0 -14 3 -28l-93 -18q-4 30 -4 46q0 91 60.5 144.5t160.5 53.5t160.5 -53.5t60.5 -144.5t-82 -178l-259 -270l30 -27q24 34 103 34h205v-76h-443z" glyph-name="two" unicode="2"/><glyph d="M116.5 38q-66.5 53 -66.5 148h94q0 -58 41.5 -91.5t115.5 -33.5q70 0 111 35.5t41 95.5q0 61 -41 97t-111 36h-57v61h57q68 0 107.5 34.5t39.5 92.5t-40 92t-107 34t-107 -34t-40 -91h-94q0 94 64.5 147.5t176.5 53.5q111 0 176 -52.5t65 -142.5q0 -48 -22 -81t-52.5 -49 t-54.5 -15v-40q24 1 55.5 -16.5t54.5 -51.5t23 -82q0 -92 -66 -146t-179 -54q-118 0 -184.5 53z" glyph-name="three" unicode="3"/><glyph d="M449 0h-82v168h-337v76l333 456h86v-456h103v-76h-103v-168zM147 214q21 30 109 30h111v198q0 79 32 120l-32 24l-252 -347z" glyph-name="four" unicode="4"/><glyph d="M123 44q-65 59 -65 159h94q0 -65 39.5 -103.5t107.5 -38.5t107.5 38.5t39.5 103.5t-39.5 103.5t-107.5 38.5q-39 0 -79.5 -12t-58.5 -32l-78 44l54 355h367v-78l-300 2l-42 -254l40 -8q5 27 39 43t88 16q59 0 107 -27t76 -76.5t28 -114.5q0 -100 -65 -159t-176 -59 t-176 59z" glyph-name="five" unicode="5"/><glyph d="M163.5 29q-59.5 44 -91.5 124.5t-32 188.5q0 114 33 198t94 129.5t143 45.5q60 0 115.5 -29t89.5 -78l-75 -40q-21 33 -56 52t-74 19q-95 0 -147.5 -78.5t-52.5 -217.5q0 -23 4 -75l39 -3q12 54 58 85t117 31q92 0 146.5 -53.5t54.5 -144.5t-61 -144.5t-165 -53.5 q-80 0 -139.5 44zM399.5 94q35.5 33 35.5 90q0 56 -35.5 88.5t-96.5 32.5q-65 0 -103.5 -32.5t-38.5 -88.5t38.5 -89t103.5 -34q61 0 96.5 33z" glyph-name="six" unicode="6"/><glyph d="M361 522q30 65 83 100l-22 32q-49 -30 -124 -30h-246v76h479v-1l-317 -699h-89z" glyph-name="seven" unicode="7"/><glyph d="M121 39q-66 54 -66 146q0 48 23 82t54.5 51.5t55.5 16.5v40q-24 -1 -54.5 15t-52.5 49t-22 81q0 90 65 142.5t176 52.5t176 -52.5t65 -142.5q0 -48 -22 -81t-52.5 -49t-54.5 -15v-40q24 1 55.5 -16.5t54.5 -51.5t23 -82q0 -92 -66 -146t-179 -54t-179 54zM407.5 420.5 q39.5 34.5 39.5 92.5t-40 92t-107 34t-107 -34t-40 -92t39.5 -92.5t107.5 -34.5t107.5 34.5zM411 96.5q41 35.5 41 95.5q0 61 -41 97t-111 36t-111 -36t-41 -97q0 -60 41 -95.5t111 -35.5t111 35.5z" glyph-name="eight" unicode="8"/><glyph d="M155.5 14q-55.5 29 -89.5 78l75 40q21 -33 56 -52t74 -19q95 0 147.5 78.5t52.5 217.5q0 23 -4 75l-39 3q-12 -54 -58 -85t-117 -31q-92 0 -146.5 53.5t-54.5 144.5t61 144.5t165 53.5q80 0 139.5 -44t91.5 -124.5t32 -188.5q0 -114 -33 -198t-94 -129.5t-143 -45.5 q-60 0 -115.5 29zM381.5 427.5q38.5 32.5 38.5 88.5t-38.5 89t-103.5 34q-61 0 -96.5 -33t-35.5 -90q0 -56 35.5 -88.5t96.5 -32.5q65 0 103.5 32.5z" glyph-name="nine" unicode="9"/><glyph d="M81 0h-81l341 700h81z" glyph-name="fraction" horiz-adv-x="422" unicode="⁄"/><glyph d="M79.5 2.5q-17.5 17.5 -17.5 42.5q0 24 17.5 41.5t42.5 17.5q24 0 41.5 -17.5t17.5 -41.5q0 -25 -17.5 -42.5t-41.5 -17.5q-25 0 -42.5 17.5z" glyph-name="period" horiz-adv-x="229" unicode="."/><glyph d="M104 -132h-69l23 217h91z" glyph-name="comma" horiz-adv-x="189" unicode=","/><glyph d="M79.5 2.5q-17.5 17.5 -17.5 42.5q0 24 17.5 41.5t42.5 17.5q24 0 41.5 -17.5t17.5 -41.5q0 -25 -17.5 -42.5t-41.5 -17.5q-25 0 -42.5 17.5zM79.5 428.5q-17.5 17.5 -17.5 42.5q0 24 17.5 41.5t42.5 17.5q24 0 41.5 -17.5t17.5 -41.5q0 -25 -17.5 -42.5t-41.5 -17.5 q-25 0 -42.5 17.5z" glyph-name="colon" horiz-adv-x="229" unicode=":"/><glyph d="M119 -132h-69l23 217h91zM101.5 428.5q-17.5 17.5 -17.5 42.5q0 24 17.5 41.5t42.5 17.5q24 0 41.5 -17.5t17.5 -41.5q0 -25 -17.5 -42.5t-41.5 -17.5q-25 0 -42.5 17.5z" glyph-name="semicolon" horiz-adv-x="251" unicode=";"/><glyph d="M79.5 2.5q-17.5 17.5 -17.5 42.5q0 24 17.5 41.5t42.5 17.5q24 0 41.5 -17.5t17.5 -41.5q0 -25 -17.5 -42.5t-41.5 -17.5q-25 0 -42.5 17.5zM233.5 2.5q-17.5 17.5 -17.5 42.5q0 24 17.5 41.5t42.5 17.5q24 0 41.5 -17.5t17.5 -41.5q0 -25 -17.5 -42.5t-41.5 -17.5 q-25 0 -42.5 17.5zM387.5 2.5q-17.5 17.5 -17.5 42.5q0 24 17.5 41.5t42.5 17.5q24 0 41.5 -17.5t17.5 -41.5q0 -25 -17.5 -42.5t-41.5 -17.5q-25 0 -42.5 17.5z" glyph-name="ellipsis" horiz-adv-x="537" unicode="…"/><glyph d="M161 175h-81l-15 525h111zM85.5 8.5q-17.5 17.5 -17.5 42.5q0 24 17.5 41.5t42.5 17.5q24 0 41.5 -17.5t17.5 -41.5q0 -25 -17.5 -42.5t-41.5 -17.5q-25 0 -42.5 17.5z" glyph-name="exclam" horiz-adv-x="241" unicode="!"/><glyph d="M169.5 492.5q17.5 -17.5 17.5 -42.5q0 -24 -17.5 -41.5t-41.5 -17.5q-25 0 -42.5 17.5t-17.5 41.5q0 25 17.5 42.5t42.5 17.5q24 0 41.5 -17.5zM176 -199h-111l15 525h81z" glyph-name="exclamdown" horiz-adv-x="241" unicode="¡"/><glyph d="M204 192q0 61 15 100t36 60.5t54 45.5q26 19 40.5 33t24 35t9.5 51q0 55 -34 87t-93 32t-94 -35.5t-35 -96.5v-51h-87v61q0 92 58 146t157 54q101 0 159.5 -53t58.5 -144q0 -46 -12.5 -77t-31.5 -50.5t-49 -42.5q-29 -22 -46.5 -40t-29 -46t-11.5 -69v-32h-89v32z M214.5 27.5q-17.5 17.5 -17.5 42.5q0 24 17.5 41.5t42.5 17.5q24 0 41.5 -17.5t17.5 -41.5q0 -25 -17.5 -42.5t-41.5 -17.5q-25 0 -42.5 17.5z" glyph-name="question" horiz-adv-x="513" unicode="?"/><glyph d="M288.5 474.5q17.5 -17.5 17.5 -42.5q0 -24 -17.5 -41.5t-42.5 -17.5q-24 0 -41.5 17.5t-17.5 41.5q0 25 17.5 42.5t41.5 17.5q25 0 42.5 -17.5zM299 310q0 -59 -15 -98.5t-36 -62t-55 -49.5q-38 -29 -55.5 -52t-17.5 -63q0 -56 34 -87.5t93 -31.5t94 35.5t35 96.5v51h87 v-61q0 -92 -58 -146t-157 -54q-101 0 -159.5 52.5t-58.5 144.5q0 42 12 71t29.5 47.5t47.5 41.5t48 42t30.5 49t12.5 74v32h89v-32z" glyph-name="questiondown" horiz-adv-x="493" unicode="¿"/><glyph d="M85.5 246.5q-17.5 17.5 -17.5 42.5q0 24 17.5 41.5t42.5 17.5q24 0 41.5 -17.5t17.5 -41.5q0 -25 -17.5 -42.5t-41.5 -17.5q-25 0 -42.5 17.5z" glyph-name="periodcentered" horiz-adv-x="246" unicode="·"/><glyph d="M110 176q-36 36 -36 86t36 85.5t86 35.5t85.5 -35.5t35.5 -85.5q0 -33 -16.5 -61t-44.5 -44.5t-60 -16.5q-50 0 -86 36z" glyph-name="bullet" horiz-adv-x="391" unicode="•"/><glyph d="M164 503l-37 -78l-66 48l62 60l-7 19l-86 13l25 77l78 -41l16 12l-15 87h81l-16 -87l17 -12l78 41l25 -77l-86 -12l-6 -19l62 -61l-65 -48l-40 78h-20z" glyph-name="asterisk" horiz-adv-x="349" unicode="*"/><glyph d="M153 -39h-81l44 190h-108v78h126l43 185h-107v78h126l48 208h81l-48 -208h173l48 208h81l-48 -208h105v-78h-124l-43 -185h105v-78h-123l-44 -190h-81l44 190h-173zM258 414l-43 -185h173l43 185h-173z" glyph-name="numbersign" horiz-adv-x="644" unicode="#"/><glyph d="M81 -148h-81l241 848h81z" glyph-name="slash" horiz-adv-x="322" unicode="/"/><glyph d="M322 -148h-81l-241 848h81z" glyph-name="backslash" horiz-adv-x="322" unicode="\"/><glyph d="M264 -174q-110 108 -159.5 226t-49.5 270t49.5 270t159.5 226l47 -38q-91 -115 -132.5 -224t-41.5 -234t41.5 -234t132.5 -224z" glyph-name="parenleft" horiz-adv-x="311" unicode="("/><glyph d="M0 -136q91 115 132.5 224t41.5 234t-41.5 234t-132.5 224l47 38q110 -108 159.5 -226t49.5 -270t-49.5 -270t-159.5 -226z" glyph-name="parenright" horiz-adv-x="311" unicode=")"/><glyph d="M336 -164q-175 0 -175 157v169q0 42 -25 61t-81 19v178q56 0 81 19t25 61v169q0 157 175 157h5v-76q-59 0 -81.5 -18.5t-22.5 -62.5v-169q0 -73 -32.5 -111t-93.5 -38v-40q61 0 93.5 -38t32.5 -111v-169q0 -44 22.5 -62.5t81.5 -18.5v-76h-5z" glyph-name="braceleft" horiz-adv-x="346" unicode="{"/><glyph d="M5 -164v76q59 0 81.5 18.5t22.5 62.5v169q0 73 32.5 111t93.5 38v40q-61 0 -93.5 38t-32.5 111v169q0 44 -22.5 62.5t-81.5 18.5v76h5q175 0 175 -157v-169q0 -42 25 -61t81 -19v-178q-56 0 -81 -19t-25 -61v-169q0 -157 -175 -157h-5z" glyph-name="braceright" horiz-adv-x="346" unicode="}"/><glyph d="M380 -227h-290v1020h290v-78h-209v-864h209v-78z" glyph-name="bracketleft" horiz-adv-x="385" unicode="["/><glyph d="M295 -227h-290v78h209v864h-209v78h290v-1020z" glyph-name="bracketright" horiz-adv-x="385" unicode="]"/><glyph d="M340 258h-290v78h290v-78z" glyph-name="hyphen" horiz-adv-x="390" unicode="-"/><glyph d="M560 258h-495v76h495v-76z" glyph-name="endash" horiz-adv-x="625" unicode="–"/><glyph d="M910 258h-820v76h820v-76z" glyph-name="emdash" horiz-adv-x="1000" unicode="—"/><glyph d="M500 -91h-495v74h495v-74z" glyph-name="underscore" horiz-adv-x="505" unicode="_"/><glyph d="M104 -132h-69l23 217h91z" glyph-name="quotesinglbase" horiz-adv-x="189" unicode="‚"/><glyph d="M244 -130h-69l23 217h91zM104 -130h-69l23 217h91z" glyph-name="quotedblbase" horiz-adv-x="324" unicode="„"/><glyph d="M80 700h69l-23 -217h-91zM220 700h69l-23 -217h-91z" glyph-name="quotedblleft" horiz-adv-x="324" unicode="“"/><glyph d="M244 483h-69l23 217h91zM104 483h-69l23 217h91z" glyph-name="quotedblright" horiz-adv-x="324" unicode="”"/><glyph d="M80 700h69l-23 -217h-91z" glyph-name="quoteleft" horiz-adv-x="184" unicode="‘"/><glyph d="M104 483h-69l23 217h91z" glyph-name="quoteright" horiz-adv-x="184" unicode="’"/><glyph d="M263 69h-94l-134 194l135 197h93l-133 -198zM431 69h-94l-134 194l135 197h93l-133 -198z" glyph-name="guillemotleft" horiz-adv-x="451" unicode="«"/><glyph d="M248 263l-134 -194h-94l133 193l-133 198h93zM416 263l-134 -194h-94l133 193l-133 198h93z" glyph-name="guillemotright" horiz-adv-x="451" unicode="»"/><glyph d="M263 69h-94l-134 194l135 197h93l-133 -198z" glyph-name="guilsinglleft" horiz-adv-x="283" unicode="‹"/><glyph d="M248 263l-134 -194h-94l133 193l-133 198h93z" glyph-name="guilsinglright" horiz-adv-x="283" unicode="›"/><glyph d="M254 483h-61l-10 217h81zM106 483h-61l-10 217h81z" glyph-name="quotedbl" horiz-adv-x="299" unicode="&quot;"/><glyph d="M106 483h-61l-10 217h81z" glyph-name="quotesingle" horiz-adv-x="151" unicode="'"/><glyph d="M274 -13q-98 12 -153.5 81t-55.5 178q0 106 53 173.5t146 81.5v88h77v-85q83 -8 131 -56.5t48 -125.5v-8h-81v8q0 48 -34.5 76.5t-92.5 28.5q-75 0 -118.5 -49t-43.5 -132q0 -84 43.5 -133.5t118.5 -49.5q64 0 101.5 29t37.5 79v8h81v-8q0 -77 -48.5 -125.5t-132.5 -58.5 v-83h-77v83z" glyph-name="cent" unicode="¢"/><glyph d="M87 -12l-51 52l68 75q-40 61 -40 132q0 77 44 137l-72 80l51 51l72 -79q63 46 144 46t144 -46l72 79l51 -51l-72 -80q44 -60 44 -137q0 -71 -40 -132l68 -75l-51 -52l-67 74q-30 -24 -68.5 -37.5t-80.5 -13.5t-80.5 13.5t-68.5 37.5zM382.5 105.5q36.5 21.5 57.5 59 t21 82.5q0 44 -21 81.5t-57.5 59t-79.5 21.5t-79.5 -21.5t-57.5 -59t-21 -81.5q0 -45 21 -82.5t57.5 -59t79.5 -21.5t79.5 21.5z" glyph-name="currency" horiz-adv-x="606" unicode="¤"/><glyph d="M237 -14q-95 9 -146.5 61t-51.5 139v61h87v-51q0 -63 38.5 -98t107.5 -35q70 0 109.5 30t39.5 83q0 34 -26 63t-73 48l-133 54q-67 27 -104.5 77t-37.5 112q0 82 52.5 130t147.5 54v57h77v-60q84 -12 130 -63t46 -134v-61h-87v51q0 63 -37 98t-104 35q-64 -1 -99.5 -29 t-35.5 -78q0 -35 27 -66t76 -50l123 -50q70 -28 109 -78t39 -110q0 -81 -51.5 -130.5t-145.5 -58.5v-77h-77v76z" glyph-name="dollar" horiz-adv-x="556" unicode="$"/><glyph d="M257.5 56q-89.5 71 -115.5 197h-77v66h68q-1 10 -1 32q0 23 1 34h-68v66h76q26 125 114 194.5t227 69.5q44 0 93 -10.5t82 -26.5l-37 -75q-25 15 -64 24.5t-74 9.5q-98 0 -161 -48.5t-85 -137.5h311l-32 -66h-290q-1 -11 -1 -34q0 -22 1 -32h258l-32 -66h-215 q23 -90 88 -140t158 -50q45 0 88.5 14.5t65.5 36.5l51 -67q-32 -27 -89.5 -44.5t-115.5 -17.5q-135 0 -224.5 71z" glyph-name="Euro" horiz-adv-x="712" unicode="€"/><glyph d="M65 102q53 23 86 65t33 86q0 31 -3 46h-100v66h77q-23 44 -38 88.5t-15 70.5q0 55 27 98.5t75.5 68t110.5 24.5q59 0 106.5 -24.5t75.5 -68.5t30 -99l-86 -19q-1 59 -35.5 96t-88.5 37q-55 0 -89.5 -31.5t-34.5 -81.5q0 -18 15.5 -63t40.5 -96h170v-66h-149q1 -5 2 -15 t1 -19q0 -59 -25.5 -110t-66.5 -76l22 -35q35 22 73 28.5t123 6.5q46 0 75 36t29 93l81 -15q0 -56 -23 -100t-63.5 -68.5t-92.5 -24.5h-343v102z" glyph-name="sterling" horiz-adv-x="612" unicode="£"/><glyph d="M241 0v108h-184v61h184v74h-184v61h165l-215 396h96l130 -240q15 -27 23.5 -68t8.5 -85h40q0 44 8.5 85t23.5 68l130 240h96l-215 -396h165v-61h-185v-74h185v-61h-185v-108h-87z" glyph-name="yen" horiz-adv-x="570" unicode="¥"/><glyph d="M289 117h-87v167h-152v78h152v166h87v-166h152v-78h-152v-167z" glyph-name="plus" horiz-adv-x="491" unicode="+"/><glyph d="M431 284h-381v78h381v-78z" glyph-name="minus" horiz-adv-x="481" unicode="−"/><glyph d="M397 201l-57 -57l-124 125l-124 -124l-56 56l124 124l-124 125l57 56l124 -124l124 124l56 -56l-124 -124z" glyph-name="multiply" horiz-adv-x="433" unicode="×"/><glyph d="M198.5 439.5q-17.5 17.5 -17.5 42.5q0 24 17.5 41.5t42.5 17.5q24 0 41.5 -17.5t17.5 -41.5q0 -25 -17.5 -42.5t-41.5 -17.5q-25 0 -42.5 17.5zM431 284h-381v78h381v-78zM198.5 123.5q-17.5 17.5 -17.5 42.5q0 24 17.5 41.5t42.5 17.5q24 0 41.5 -17.5t17.5 -41.5 q0 -25 -17.5 -42.5t-41.5 -17.5q-25 0 -42.5 17.5z" glyph-name="divide" horiz-adv-x="481" unicode="÷"/><glyph d="M486 404h-431v78h431v-78zM486 165h-431v78h431v-78z" glyph-name="equal" horiz-adv-x="541" unicode="="/><glyph d="M179 76h-78l53 99h-99v78h140l75 141h-215v78h257l50 95h78l-50 -95h96v-78h-138l-75 -141h213v-78h-254z" glyph-name="notequal" horiz-adv-x="541" unicode="≠"/><glyph d="M449 247l-417 -199v105l316 143l-316 143v103l417 -200v-95z" glyph-name="greater" horiz-adv-x="484" unicode="&gt;"/><glyph d="M452 48l-417 199v95l417 200v-103l-316 -143l316 -143v-105z" glyph-name="less" horiz-adv-x="482" unicode="&lt;"/><glyph d="M449 326l-417 -199v105l316 143l-316 143v103l417 -200v-95zM32 0v78h417v-78h-417z" glyph-name="greaterequal" horiz-adv-x="484" unicode="≥"/><glyph d="M452 232v-105l-417 199v95l417 200v-103l-316 -143zM452 0h-417v78h417v-78z" glyph-name="lessequal" horiz-adv-x="484" unicode="≤"/><glyph d="M289 157h-87v147h-152v78h152v146h87v-146h152v-78h-152v-147zM441 0h-391v78h391v-78z" glyph-name="plusminus" horiz-adv-x="491" unicode="±"/><glyph d="M118 580h-88l130 135h57l130 -135h-88l-70 78z" glyph-name="asciicircum" horiz-adv-x="377" unicode="^"/><glyph d="M86 499q-36 35 -36 91q0 55 36 90t93 35q56 0 92 -35t36 -90t-36 -90.5t-92 -35.5q-57 0 -93 35zM173 -2h-101l481 702h101zM220.5 544.5q16.5 17.5 16.5 45.5q0 27 -16.5 44.5t-41.5 17.5q-26 0 -42.5 -17.5t-16.5 -44.5q0 -28 16.5 -45.5t42.5 -17.5q25 0 41.5 17.5z M465 20q-36 35 -36 91q0 55 36 90t93 35q56 0 92 -35t36 -90t-36 -90.5t-92 -35.5q-57 0 -93 35zM599.5 65.5q16.5 17.5 16.5 45.5q0 27 -16.5 44.5t-41.5 17.5q-26 0 -42.5 -17.5t-16.5 -44.5q0 -28 16.5 -45.5t42.5 -17.5q25 0 41.5 17.5z" glyph-name="percent" horiz-adv-x="726" unicode="%"/><glyph d="M233 -5q-89 49 -138.5 137t-49.5 199t49.5 198.5t138.5 136.5t202 49q114 0 202.5 -46.5t138 -131.5t49.5 -196q0 -89 -34.5 -148t-92.5 -59q-39 0 -61.5 28.5t-22.5 75.5h-40q0 -53 -44 -87.5t-110 -34.5q-56 0 -100.5 27t-69.5 75.5t-25 109.5q0 60 25 107.5t69.5 74 t100.5 26.5q49 0 87.5 -27.5t61.5 -77.5v71h71v-202q0 -37 11 -54t37 -17q20 0 30 29.5t10 82.5q0 87 -37 153.5t-104 102.5t-152 36t-151.5 -38.5t-104 -107.5t-37.5 -156q0 -88 37.5 -157t104 -107.5t151.5 -38.5q99 0 174 53l44 -77q-96 -58 -218 -58q-113 0 -202 49z M526.5 232q34.5 38 34.5 96q0 57 -34.5 93.5t-87.5 36.5q-58 0 -94.5 -36.5t-36.5 -93.5q0 -59 36.5 -96.5t94.5 -37.5q53 0 87.5 38z" glyph-name="at" horiz-adv-x="870" unicode="@"/><glyph d="M130.5 35.5q-60.5 47.5 -60.5 130.5q0 46 26.5 90.5t71.5 75.5l44 30l-40 41q-27 28 -42 65t-15 75q0 78 51.5 125t135.5 47q91 0 141.5 -45.5t50.5 -126.5q0 -44 -28.5 -90t-76.5 -77l-46 -30l155 -158q17 40 17 91v28h87l-1 -28q-3 -86 -41 -154l121 -125h-122l-55 57 q-82 -69 -203 -69q-110 0 -170.5 47.5zM339 448q29 20 47 46.5t18 48.5q0 45 -26 69.5t-76 24.5q-42 0 -69.5 -25.5t-27.5 -66.5q0 -28 12.5 -55.5t34.5 -49.5l30 -31zM448 116l-177 184l-42 -28q-32 -21 -50.5 -49.5t-18.5 -56.5q0 -47 36.5 -73.5t105.5 -26.5q87 0 146 50 z" glyph-name="ampersand" horiz-adv-x="681" unicode="&amp;"/><glyph d="M218 321q-54 0 -97 24.5t-67 67.5t-24 98t24 98t67 67t97 24h332v-78h-78v-842h-87v842h-80v-842h-87v541z" glyph-name="paragraph" horiz-adv-x="570" unicode="¶"/><glyph d="M52 496.5q-32 31.5 -32 84.5t32 84t87 31q54 0 86 -31t32 -84t-32 -84.5t-86 -31.5q-55 0 -87 31.5zM182 533.5q16 17.5 16 47.5q0 29 -16 46.5t-43 17.5q-28 0 -44 -17.5t-16 -46.5q0 -30 16 -47.5t44 -17.5q27 0 43 17.5z" glyph-name="degree" horiz-adv-x="277" unicode="°"/><glyph d="M177 -170h-87v870h87v-870z" glyph-name="bar" horiz-adv-x="267" unicode="|"/><glyph d="M177 370h-87v330h87v-330zM177 -170h-87v330h87v-330z" glyph-name="brokenbar" horiz-adv-x="267" unicode="¦"/><glyph d="M-332.5 583.5q-17.5 17.5 -17.5 42.5q0 24 17.5 41.5t42.5 17.5q24 0 41.5 -17.5t17.5 -41.5q0 -25 -17.5 -42.5t-41.5 -17.5q-25 0 -42.5 17.5zM-162.5 583.5q-17.5 17.5 -17.5 42.5q0 24 17.5 41.5t42.5 17.5q24 0 41.5 -17.5t17.5 -41.5q0 -25 -17.5 -42.5 t-41.5 -17.5q-25 0 -42.5 17.5z" glyph-name="uni0308" horiz-adv-x="0" unicode="̈"/><glyph d="M-162.5 613.5q-17.5 17.5 -17.5 42.5q0 24 17.5 41.5t42.5 17.5q24 0 41.5 -17.5t17.5 -41.5q0 -25 -17.5 -42.5t-41.5 -17.5q-25 0 -42.5 17.5z" glyph-name="uni0307" horiz-adv-x="0" unicode="̇"/><glyph d="M-130 700l100 -150h-62l-138 150h100z" glyph-name="gravecomb" horiz-adv-x="0" unicode="̀"/><glyph d="M-164 550h-62l100 150h100z" glyph-name="acutecomb" horiz-adv-x="0" unicode="́"/><glyph d="M-259 580h-88l130 135h57l130 -135h-88l-70 78z" glyph-name="uni0302" horiz-adv-x="0" unicode="̂"/><glyph d="M-282 600.5q-43 38.5 -45 99.5h64q2 -34 27 -55.5t63 -21.5q37 0 62 21.5t27 55.5h64q-2 -61 -44.5 -99.5t-108.5 -38.5t-109 38.5z" glyph-name="uni0306" horiz-adv-x="0" unicode="̆"/><glyph d="M-207.5 573.5q-29.5 28.5 -29.5 77.5q0 48 29.5 76.5t79.5 28.5q49 0 78.5 -28.5t29.5 -76.5q0 -49 -29 -77.5t-79 -28.5t-79.5 28.5zM-92 611q13 15 13 40t-13.5 39.5t-35.5 14.5q-23 0 -36.5 -14.5t-13.5 -39.5q0 -26 13.5 -40.5t36.5 -14.5t36 15z" glyph-name="uni030A" horiz-adv-x="0" unicode="̊"/><glyph d="M-461 577q0 57 28 87.5t79 30.5q26 0 46 -6.5t48 -19.5q4 -2 16.5 -7.5t22.5 -8t19 -2.5q21 0 33.5 14t12.5 40h61q0 -57 -28 -87.5t-79 -30.5q-27 0 -46 6.5t-44 18.5q-20 10 -33 14.5t-29 4.5q-21 0 -33.5 -14t-12.5 -40h-61z" glyph-name="tildecomb" horiz-adv-x="0" unicode="̃"/><glyph d="M-219 -237.5q-32 17.5 -51 46.5l26 42q20 -25 45.5 -39.5t47.5 -14.5q33 0 52 15.5t19 42.5q0 32 -18 51t-49 19q-12 0 -33 -7l-20 33l32 62l62 1l-28 -53q52 1 83 -27.5t31 -78.5q0 -51 -35.5 -80.5t-95.5 -29.5q-36 0 -68 17.5z" glyph-name="uni0327" horiz-adv-x="0" unicode="̧"/><glyph glyph-name="twoz"/><glyph glyph-name="Ampersand"/></font>
</defs>
</svg>
